<?xml version="1.0" encoding="utf-8"?>
<!-- Generator: Adobe Illustrator 22.1.0, SVG Export Plug-In . SVG Version: 6.00 Build 0)  -->
<svg version="1.1" id="图层_1" xmlns="http://www.w3.org/2000/svg" xmlns:xlink="http://www.w3.org/1999/xlink" x="0px" y="0px"
	 viewBox="0 0 720 576" style="enable-background:new 0 0 720 576;" xml:space="preserve">
<style type="text/css">
	
		.st0{clip-path:url(#SVGID_2_);fill:none;stroke:#000000;stroke-width:0.75;stroke-linecap:round;stroke-linejoin:round;stroke-miterlimit:10;}
	
		.st1{clip-path:url(#SVGID_4_);fill:none;stroke:#000000;stroke-width:0.75;stroke-linecap:round;stroke-linejoin:round;stroke-miterlimit:10;}
	.st2{fill:#FFECEC;}
	.st3{fill:none;stroke:#999999;stroke-width:0.75;stroke-linecap:round;stroke-linejoin:round;stroke-miterlimit:10;}
	.st4{fill:#FFF7F7;}
	.st5{fill:#FFD8D8;}
	.st6{fill:#FFB1B1;}
	.st7{fill:#FFBCBC;}
	.st8{fill:#FFE2E2;}
	.st9{fill:#FFC3C3;}
	.st10{fill:#FF9D9D;}
	.st11{fill:#FFA7A7;}
	.st12{fill:#FFCECE;}
	.st13{fill:#FFFFFF;}
	.st14{fill:#FF6C6C;}
	.st15{fill:#FF9292;}
	.st16{fill:#FF4D4D;}
	.st17{fill:#FF6161;}
	.st18{fill:#FF0000;}
	.st19{fill:#FF1C1C;}
	.st20{fill:#FF7676;}
	.st21{fill:#FF5757;}
	.st22{fill:#FF8888;}
	.st23{fill:#FFFCFC;}
	.st24{fill:#FFF9F9;}
	.st25{fill:#FFF4F4;}
	.st26{fill:#FFF2F2;}
	.st27{fill:#FFEFEF;}
	.st28{fill:#FFEAEA;}
	.st29{fill:#FFE7E7;}
	.st30{fill:#FFE5E5;}
	.st31{fill:#FFE0E0;}
	.st32{fill:#FFDDDD;}
	.st33{fill:#FFDADA;}
	.st34{fill:#FFD5D5;}
	.st35{fill:#FFD3D3;}
	.st36{fill:#FFD0D0;}
	.st37{fill:#FFCBCB;}
	.st38{fill:#FFC8C8;}
	.st39{fill:#FFC6C6;}
	.st40{fill:#FFC1C1;}
	.st41{fill:#FFBEBE;}
	.st42{fill:#FFB9B9;}
	.st43{fill:#FFB6B6;}
	.st44{fill:#FFB4B4;}
	.st45{fill:#FFAFAF;}
	.st46{fill:#FFACAC;}
	.st47{fill:#FFAAAA;}
	.st48{fill:#FFA4A4;}
	.st49{fill:#FFA2A2;}
	.st50{fill:#FF9F9F;}
	.st51{fill:#FF9A9A;}
	.st52{fill:#FF9797;}
	.st53{fill:#FF9595;}
	.st54{fill:#FF9090;}
	.st55{fill:#FF8D8D;}
	.st56{fill:#FF8B8B;}
	.st57{fill:#FF8585;}
	.st58{fill:#FF8383;}
	.st59{fill:#FF8080;}
	.st60{fill:#FF7E7E;}
	.st61{fill:#FF7B7B;}
	.st62{fill:#FF7979;}
	.st63{fill:#FF7373;}
	.st64{fill:#FF7171;}
	.st65{fill:#FF6E6E;}
	.st66{fill:#FF6969;}
	.st67{fill:#FF6767;}
	.st68{fill:#FF6464;}
	.st69{fill:#FF5F5F;}
	.st70{fill:#FF5C5C;}
	.st71{fill:#FF5A5A;}
	.st72{fill:#FF5454;}
	.st73{fill:#FF5252;}
	.st74{fill:#FF4F4F;}
	.st75{fill:#FF4A4A;}
	.st76{fill:#FF4848;}
	.st77{fill:#FF4545;}
	.st78{fill:#FF4242;}
	.st79{fill:#FF4040;}
	.st80{fill:#FF3D3D;}
	.st81{fill:#FF3B3B;}
	.st82{fill:#FF3838;}
	.st83{fill:#FF3636;}
	.st84{fill:#FF3333;}
	.st85{fill:#FF3030;}
	.st86{fill:#FF2E2E;}
	.st87{fill:#FF2B2B;}
	.st88{fill:#FF2929;}
	.st89{fill:#FF2626;}
	.st90{fill:#FF2424;}
	.st91{fill:#FF2121;}
	.st92{fill:#FF1E1E;}
	.st93{fill:#FF1919;}
	.st94{fill:#FF1717;}
	.st95{fill:#FF1414;}
	.st96{fill:#FF1212;}
	.st97{fill:#FF0F0F;}
	.st98{fill:#FF0C0C;}
	.st99{fill:#FF0A0A;}
	.st100{fill:#FF0707;}
	.st101{fill:#FF0505;}
	.st102{fill:#FF0202;}
</style>
<g>
	<path d="M269.8,10.6l2.3-0.2c0.1,0.8,0.4,1.3,0.8,1.7c0.4,0.4,1,0.5,1.7,0.5c0.7,0,1.3-0.2,1.7-0.5c0.4-0.3,0.6-0.7,0.6-1.1
		c0-0.3-0.1-0.5-0.2-0.7c-0.2-0.2-0.4-0.4-0.8-0.5c-0.3-0.1-0.9-0.3-1.9-0.5c-1.2-0.3-2.1-0.7-2.6-1.1c-0.7-0.6-1.1-1.4-1.1-2.3
		c0-0.6,0.2-1.1,0.5-1.6c0.3-0.5,0.8-0.9,1.4-1.2c0.6-0.3,1.4-0.4,2.3-0.4c1.4,0,2.5,0.3,3.2,0.9c0.7,0.6,1.1,1.5,1.1,2.5l-2.3,0.1
		c-0.1-0.6-0.3-1-0.6-1.3c-0.3-0.3-0.8-0.4-1.5-0.4c-0.7,0-1.2,0.1-1.6,0.4c-0.2,0.2-0.4,0.4-0.4,0.7c0,0.3,0.1,0.5,0.3,0.7
		c0.3,0.2,1,0.5,2.1,0.8s2,0.5,2.5,0.8c0.5,0.3,1,0.7,1.3,1.2s0.5,1.1,0.5,1.8c0,0.7-0.2,1.3-0.5,1.8c-0.4,0.6-0.9,1-1.5,1.3
		c-0.7,0.3-1.5,0.4-2.5,0.4c-1.4,0-2.6-0.3-3.3-1C270.4,12.9,269.9,11.9,269.8,10.6z"/>
	<path d="M286.5,14.4v-1.2c-0.3,0.4-0.7,0.8-1.2,1s-1,0.4-1.6,0.4c-0.6,0-1.1-0.1-1.5-0.4c-0.4-0.2-0.8-0.6-1-1
		c-0.2-0.4-0.3-1.1-0.3-1.8V6.1h2.2v3.8c0,1.2,0,1.9,0.1,2.1c0.1,0.3,0.2,0.5,0.4,0.6c0.2,0.2,0.5,0.2,0.8,0.2c0.4,0,0.7-0.1,1-0.3
		c0.3-0.2,0.5-0.5,0.6-0.8s0.2-1.1,0.2-2.2V6.1h2.2v8.3H286.5z"/>
	<path d="M290.6,6.1h2v1.1c0.7-0.9,1.6-1.3,2.6-1.3c0.5,0,1,0.1,1.4,0.3s0.7,0.5,1,1c0.4-0.4,0.8-0.8,1.2-1s0.9-0.3,1.4-0.3
		c0.6,0,1.1,0.1,1.5,0.4c0.4,0.2,0.7,0.6,0.9,1.1c0.2,0.4,0.2,0.9,0.2,1.7v5.3h-2.2V9.6c0-0.8-0.1-1.4-0.2-1.6
		c-0.2-0.3-0.5-0.5-0.9-0.5c-0.3,0-0.6,0.1-0.9,0.3c-0.3,0.2-0.5,0.5-0.6,0.8c-0.1,0.4-0.2,0.9-0.2,1.7v4h-2.2V9.8
		c0-0.8,0-1.3-0.1-1.6s-0.2-0.4-0.4-0.5c-0.2-0.1-0.4-0.2-0.7-0.2c-0.3,0-0.6,0.1-0.9,0.3c-0.3,0.2-0.5,0.4-0.6,0.8
		s-0.2,0.9-0.2,1.7v4h-2.2V6.1z"/>
	<path d="M309,10.1c0-0.7,0.2-1.4,0.5-2.1c0.4-0.7,0.9-1.2,1.5-1.6c0.7-0.4,1.4-0.5,2.2-0.5c1.3,0,2.3,0.4,3.1,1.2
		c0.8,0.8,1.2,1.8,1.2,3.1c0,1.3-0.4,2.3-1.2,3.1c-0.8,0.8-1.8,1.2-3.1,1.2c-0.8,0-1.5-0.2-2.2-0.5c-0.7-0.3-1.2-0.8-1.6-1.5
		S309,11,309,10.1z M311.2,10.2c0,0.8,0.2,1.5,0.6,1.9s0.9,0.7,1.4,0.7c0.6,0,1.1-0.2,1.4-0.7c0.4-0.4,0.6-1.1,0.6-1.9
		c0-0.8-0.2-1.4-0.6-1.9c-0.4-0.4-0.9-0.7-1.4-0.7c-0.6,0-1.1,0.2-1.4,0.7S311.2,9.4,311.2,10.2z"/>
	<path d="M318.3,6.1h1.2V5.4c0-0.7,0.1-1.2,0.2-1.6s0.4-0.6,0.8-0.8c0.4-0.2,0.9-0.3,1.5-0.3c0.6,0,1.2,0.1,1.8,0.3l-0.3,1.5
		c-0.3-0.1-0.7-0.1-1-0.1c-0.3,0-0.5,0.1-0.7,0.2c-0.1,0.1-0.2,0.4-0.2,0.9v0.6h1.6v1.7h-1.6v6.6h-2.2V7.8h-1.2V6.1z"/>
	<path d="M329.1,14.4V3h2.3v9.4h5.8v1.9H329.1z"/>
	<path d="M338.8,14.4V2.9h4.9c1.2,0,2.1,0.1,2.7,0.3c0.6,0.2,1,0.6,1.3,1.1c0.3,0.5,0.5,1.1,0.5,1.8c0,0.9-0.3,1.6-0.8,2.1
		c-0.5,0.6-1.3,0.9-2.3,1.1c0.5,0.3,0.9,0.6,1.2,1c0.3,0.3,0.8,1,1.3,1.9l1.4,2.2h-2.8l-1.7-2.5c-0.6-0.9-1-1.5-1.2-1.7
		c-0.2-0.2-0.5-0.4-0.7-0.5c-0.2-0.1-0.6-0.1-1.2-0.1h-0.5v4.8H338.8z M341.1,7.8h1.7c1.1,0,1.8,0,2.1-0.1c0.3-0.1,0.5-0.3,0.6-0.5
		c0.2-0.2,0.2-0.5,0.2-0.9c0-0.4-0.1-0.7-0.3-0.9c-0.2-0.2-0.5-0.4-0.9-0.4c-0.2,0-0.8,0-1.7,0h-1.8V7.8z"/>
	<path d="M354.7,6.1h2v1.2c0.3-0.4,0.6-0.8,1.1-1c0.5-0.3,1-0.4,1.5-0.4c1,0,1.8,0.4,2.5,1.1c0.7,0.8,1,1.8,1,3.2
		c0,1.4-0.3,2.5-1,3.2c-0.7,0.8-1.5,1.2-2.5,1.2c-0.5,0-0.9-0.1-1.2-0.3c-0.4-0.2-0.8-0.5-1.2-0.9v4.2h-2.2V6.1z M356.9,10.1
		c0,0.9,0.2,1.6,0.6,2.1c0.4,0.4,0.8,0.7,1.4,0.7c0.5,0,0.9-0.2,1.3-0.6c0.3-0.4,0.5-1.1,0.5-2c0-0.9-0.2-1.5-0.5-1.9
		c-0.3-0.4-0.8-0.6-1.3-0.6c-0.5,0-1,0.2-1.3,0.6C357.1,8.6,356.9,9.3,356.9,10.1z"/>
	<path d="M366.2,8.6l-2-0.4c0.2-0.8,0.6-1.4,1.2-1.8c0.5-0.4,1.4-0.6,2.4-0.6c1,0,1.7,0.1,2.2,0.3c0.5,0.2,0.8,0.5,1,0.9
		c0.2,0.4,0.3,1,0.3,2l0,2.6c0,0.7,0,1.3,0.1,1.6c0.1,0.3,0.2,0.7,0.4,1.1h-2.2c-0.1-0.1-0.1-0.4-0.2-0.6c0-0.1-0.1-0.2-0.1-0.3
		c-0.4,0.4-0.8,0.6-1.2,0.8s-0.9,0.3-1.4,0.3c-0.9,0-1.5-0.2-2-0.7c-0.5-0.5-0.7-1-0.7-1.8c0-0.5,0.1-0.9,0.3-1.3s0.5-0.6,0.9-0.8
		s1-0.4,1.7-0.5c1-0.2,1.7-0.4,2.1-0.5V8.7c0-0.4-0.1-0.7-0.3-0.9s-0.6-0.3-1.2-0.3c-0.4,0-0.7,0.1-0.9,0.2
		C366.5,7.9,366.3,8.2,366.2,8.6z M369.1,10.4c-0.3,0.1-0.7,0.2-1.3,0.3c-0.6,0.1-1,0.3-1.2,0.4c-0.3,0.2-0.4,0.5-0.4,0.8
		c0,0.3,0.1,0.6,0.3,0.8c0.2,0.2,0.5,0.3,0.9,0.3c0.4,0,0.8-0.1,1.1-0.4c0.3-0.2,0.4-0.4,0.5-0.7c0.1-0.2,0.1-0.5,0.1-1.1V10.4z"/>
	<path d="M373.5,4.9v-2h2.2v2H373.5z M373.5,14.4V6.1h2.2v8.3H373.5z"/>
	<path d="M380,14.4h-2.2V6.1h2v1.2c0.3-0.6,0.7-0.9,0.9-1.1c0.3-0.2,0.6-0.3,0.9-0.3c0.5,0,1,0.1,1.4,0.4l-0.7,1.9
		c-0.4-0.2-0.7-0.4-1-0.4c-0.3,0-0.6,0.1-0.8,0.3c-0.2,0.2-0.4,0.5-0.5,0.9c-0.1,0.4-0.2,1.4-0.2,2.8V14.4z"/>
	<path d="M383.1,12l2.2-0.3c0.1,0.4,0.3,0.8,0.6,1c0.3,0.2,0.7,0.3,1.2,0.3c0.6,0,1-0.1,1.3-0.3c0.2-0.1,0.3-0.3,0.3-0.6
		c0-0.2-0.1-0.3-0.2-0.4c-0.1-0.1-0.4-0.2-0.7-0.3c-1.8-0.4-2.9-0.7-3.4-1.1c-0.7-0.4-1-1.1-1-1.9c0-0.7,0.3-1.3,0.9-1.8
		c0.6-0.5,1.4-0.7,2.6-0.7c1.1,0,2,0.2,2.5,0.6c0.6,0.4,0.9,0.9,1.1,1.6l-2.1,0.4c-0.1-0.3-0.3-0.6-0.5-0.7s-0.6-0.3-1.1-0.3
		c-0.6,0-1,0.1-1.2,0.2c-0.2,0.1-0.3,0.3-0.3,0.4c0,0.2,0.1,0.3,0.2,0.4c0.2,0.1,0.9,0.4,2.1,0.6s2,0.6,2.4,1
		c0.5,0.4,0.7,0.9,0.7,1.6c0,0.8-0.3,1.4-1,2s-1.6,0.8-2.8,0.8c-1.1,0-2-0.2-2.7-0.7C383.8,13.4,383.3,12.8,383.1,12z"/>
	<path d="M404.8,14.4h-2.2v-4.2c0-0.9,0-1.5-0.1-1.7c-0.1-0.3-0.2-0.5-0.5-0.6c-0.2-0.1-0.5-0.2-0.8-0.2c-0.4,0-0.7,0.1-1,0.3
		c-0.3,0.2-0.5,0.5-0.6,0.8s-0.2,1-0.2,1.9v3.8h-2.2V6.1h2v1.2c0.7-0.9,1.6-1.4,2.7-1.4c0.5,0,0.9,0.1,1.3,0.3
		c0.4,0.2,0.7,0.4,0.9,0.7c0.2,0.3,0.3,0.6,0.4,0.9s0.1,0.8,0.1,1.5V14.4z"/>
	<path d="M412.3,14.4v-1.2c-0.3,0.4-0.7,0.8-1.2,1s-1,0.4-1.6,0.4c-0.6,0-1.1-0.1-1.5-0.4s-0.8-0.6-1-1c-0.2-0.4-0.3-1.1-0.3-1.8
		V6.1h2.2v3.8c0,1.2,0,1.9,0.1,2.1c0.1,0.3,0.2,0.5,0.4,0.6c0.2,0.2,0.5,0.2,0.8,0.2c0.4,0,0.7-0.1,1-0.3c0.3-0.2,0.5-0.5,0.6-0.8
		s0.2-1.1,0.2-2.2V6.1h2.2v8.3H412.3z"/>
	<path d="M416.5,6.1h2v1.1c0.7-0.9,1.6-1.3,2.6-1.3c0.5,0,1,0.1,1.4,0.3s0.7,0.5,1,1c0.4-0.4,0.8-0.8,1.2-1s0.9-0.3,1.4-0.3
		c0.6,0,1.1,0.1,1.5,0.4c0.4,0.2,0.7,0.6,0.9,1.1c0.2,0.4,0.2,0.9,0.2,1.7v5.3h-2.2V9.6c0-0.8-0.1-1.4-0.2-1.6
		c-0.2-0.3-0.5-0.5-0.9-0.5c-0.3,0-0.6,0.1-0.9,0.3s-0.5,0.5-0.6,0.8c-0.1,0.4-0.2,0.9-0.2,1.7v4h-2.2V9.8c0-0.8,0-1.3-0.1-1.6
		s-0.2-0.4-0.4-0.5c-0.2-0.1-0.4-0.2-0.7-0.2c-0.3,0-0.6,0.1-0.9,0.3c-0.3,0.2-0.5,0.4-0.6,0.8s-0.2,0.9-0.2,1.7v4h-2.2V6.1z"/>
	<path d="M430.8,14.4V2.9h2.2V7c0.7-0.8,1.5-1.2,2.4-1.2c1,0,1.8,0.4,2.5,1.1c0.7,0.7,1,1.8,1,3.2c0,1.4-0.3,2.5-1,3.3
		s-1.5,1.1-2.5,1.1c-0.5,0-0.9-0.1-1.4-0.4s-0.9-0.6-1.2-1.1v1.2H430.8z M433,10c0,0.9,0.1,1.5,0.4,1.9c0.4,0.6,0.9,0.9,1.5,0.9
		c0.5,0,0.9-0.2,1.2-0.6s0.5-1.1,0.5-2c0-0.9-0.2-1.6-0.5-2.1c-0.3-0.4-0.8-0.6-1.3-0.6c-0.5,0-1,0.2-1.3,0.6
		C433.1,8.6,433,9.2,433,10z"/>
	<path d="M445.5,11.7l2.2,0.4c-0.3,0.8-0.7,1.4-1.3,1.8c-0.6,0.4-1.4,0.6-2.3,0.6c-1.4,0-2.5-0.5-3.2-1.4c-0.5-0.8-0.8-1.7-0.8-2.9
		c0-1.4,0.4-2.5,1.1-3.2c0.7-0.8,1.6-1.2,2.7-1.2c1.2,0,2.2,0.4,2.9,1.2c0.7,0.8,1.1,2.1,1,3.7h-5.5c0,0.7,0.2,1.2,0.5,1.5
		c0.3,0.4,0.8,0.5,1.3,0.5c0.3,0,0.6-0.1,0.9-0.3S445.3,12.1,445.5,11.7z M445.6,9.5c0-0.6-0.2-1.1-0.5-1.4
		c-0.3-0.3-0.7-0.5-1.1-0.5c-0.5,0-0.9,0.2-1.2,0.5c-0.3,0.3-0.5,0.8-0.5,1.4H445.6z"/>
	<path d="M451.6,14.4h-2.2V6.1h2v1.2c0.3-0.6,0.7-0.9,0.9-1.1c0.3-0.2,0.6-0.3,0.9-0.3c0.5,0,1,0.1,1.4,0.4l-0.7,1.9
		c-0.4-0.2-0.7-0.4-1-0.4c-0.3,0-0.6,0.1-0.8,0.3c-0.2,0.2-0.4,0.5-0.5,0.9c-0.1,0.4-0.2,1.4-0.2,2.8V14.4z"/>
</g>
<g>
	<defs>
		<rect id="SVGID_1_" x="55" y="17.2" width="613.8" height="55"/>
	</defs>
	<clipPath id="SVGID_2_">
		<use xlink:href="#SVGID_1_"  style="overflow:visible;"/>
	</clipPath>
	<polyline class="st0" points="98.8,72.2 98.8,66.6 186.5,66.6 186.5,72.2 	"/>
	<polyline class="st0" points="274.2,72.2 274.2,63.8 361.9,63.8 361.9,72.2 	"/>
	<polyline class="st0" points="537.3,72.2 537.3,63.6 625,63.6 625,72.2 	"/>
	<polyline class="st0" points="142.7,66.6 142.7,57.4 318.1,57.4 318.1,63.8 	"/>
	<polyline class="st0" points="449.6,72.2 449.6,51.3 581.2,51.3 581.2,63.6 	"/>
	<polyline class="st0" points="230.4,57.4 230.4,19.8 515.4,19.8 515.4,51.3 	"/>
</g>
<g>
	<defs>
		<rect id="SVGID_3_" y="72.2" width="55" height="485.1"/>
	</defs>
	<clipPath id="SVGID_4_">
		<use xlink:href="#SVGID_3_"  style="overflow:visible;"/>
	</clipPath>
	<polyline class="st1" points="55,176.2 50,176.2 50,245.5 55,245.5 	"/>
	<polyline class="st1" points="55,314.8 46.7,314.8 46.7,384.1 55,384.1 	"/>
	<polyline class="st1" points="55,453.4 45.1,453.4 45.1,522.7 55,522.7 	"/>
	<polyline class="st1" points="55,106.9 41.7,106.9 41.7,210.9 50,210.9 	"/>
	<polyline class="st1" points="46.7,349.5 26.3,349.5 26.3,488.1 45.1,488.1 	"/>
	<polyline class="st1" points="41.7,158.9 2.6,158.9 2.6,418.8 26.3,418.8 	"/>
</g>
<rect x="55" y="72.2" class="st2" width="87.7" height="69.3"/>
<rect x="55" y="72.2" class="st3" width="87.7" height="69.3"/>
<rect x="55" y="141.5" class="st2" width="87.7" height="69.3"/>
<rect x="55" y="141.5" class="st3" width="87.7" height="69.3"/>
<rect x="55" y="210.8" class="st4" width="87.7" height="69.3"/>
<rect x="55" y="210.8" class="st3" width="87.7" height="69.3"/>
<rect x="55" y="280.2" class="st5" width="87.7" height="69.3"/>
<rect x="55" y="280.2" class="st3" width="87.7" height="69.3"/>
<rect x="55" y="349.5" class="st5" width="87.7" height="69.3"/>
<rect x="55" y="349.5" class="st3" width="87.7" height="69.3"/>
<rect x="55" y="418.8" class="st6" width="87.7" height="69.3"/>
<rect x="55" y="418.8" class="st3" width="87.7" height="69.3"/>
<rect x="55" y="488.1" class="st7" width="87.7" height="69.3"/>
<rect x="55" y="488.1" class="st3" width="87.7" height="69.3"/>
<rect x="142.7" y="72.2" class="st4" width="87.7" height="69.3"/>
<rect x="142.7" y="72.2" class="st3" width="87.7" height="69.3"/>
<rect x="142.7" y="141.5" class="st2" width="87.7" height="69.3"/>
<rect x="142.7" y="141.5" class="st3" width="87.7" height="69.3"/>
<rect x="142.7" y="210.8" class="st8" width="87.7" height="69.3"/>
<rect x="142.7" y="210.8" class="st3" width="87.7" height="69.3"/>
<rect x="142.7" y="280.2" class="st9" width="87.7" height="69.3"/>
<rect x="142.7" y="280.2" class="st3" width="87.7" height="69.3"/>
<rect x="142.7" y="349.5" class="st9" width="87.7" height="69.3"/>
<rect x="142.7" y="349.5" class="st3" width="87.7" height="69.3"/>
<rect x="142.7" y="418.8" class="st10" width="87.7" height="69.3"/>
<rect x="142.7" y="418.8" class="st3" width="87.7" height="69.3"/>
<rect x="142.7" y="488.1" class="st11" width="87.7" height="69.3"/>
<rect x="142.7" y="488.1" class="st3" width="87.7" height="69.3"/>
<rect x="230.4" y="72.2" class="st2" width="87.7" height="69.3"/>
<rect x="230.4" y="72.2" class="st3" width="87.7" height="69.3"/>
<rect x="230.4" y="141.5" class="st8" width="87.7" height="69.3"/>
<rect x="230.4" y="141.5" class="st3" width="87.7" height="69.3"/>
<rect x="230.4" y="210.8" class="st5" width="87.7" height="69.3"/>
<rect x="230.4" y="210.8" class="st3" width="87.7" height="69.3"/>
<rect x="230.4" y="280.2" class="st7" width="87.7" height="69.3"/>
<rect x="230.4" y="280.2" class="st3" width="87.7" height="69.3"/>
<rect x="230.4" y="349.5" class="st9" width="87.7" height="69.3"/>
<rect x="230.4" y="349.5" class="st3" width="87.7" height="69.3"/>
<rect x="230.4" y="418.8" class="st12" width="87.7" height="69.3"/>
<rect x="230.4" y="418.8" class="st3" width="87.7" height="69.3"/>
<rect x="230.4" y="488.1" class="st8" width="87.7" height="69.3"/>
<rect x="230.4" y="488.1" class="st3" width="87.7" height="69.3"/>
<rect x="318.1" y="72.2" class="st13" width="87.7" height="69.3"/>
<rect x="318.1" y="72.2" class="st3" width="87.7" height="69.3"/>
<rect x="318.1" y="141.5" class="st4" width="87.7" height="69.3"/>
<rect x="318.1" y="141.5" class="st3" width="87.7" height="69.3"/>
<rect x="318.1" y="210.8" class="st4" width="87.7" height="69.3"/>
<rect x="318.1" y="210.8" class="st3" width="87.7" height="69.3"/>
<rect x="318.1" y="280.2" class="st5" width="87.7" height="69.3"/>
<rect x="318.1" y="280.2" class="st3" width="87.7" height="69.3"/>
<rect x="318.1" y="349.5" class="st8" width="87.7" height="69.3"/>
<rect x="318.1" y="349.5" class="st3" width="87.7" height="69.3"/>
<rect x="318.1" y="418.8" class="st2" width="87.7" height="69.3"/>
<rect x="318.1" y="418.8" class="st3" width="87.7" height="69.3"/>
<rect x="318.1" y="488.1" class="st4" width="87.7" height="69.3"/>
<rect x="318.1" y="488.1" class="st3" width="87.7" height="69.3"/>
<rect x="405.8" y="72.2" class="st14" width="87.7" height="69.3"/>
<rect x="405.8" y="72.2" class="st3" width="87.7" height="69.3"/>
<rect x="405.8" y="141.5" class="st15" width="87.7" height="69.3"/>
<rect x="405.8" y="141.5" class="st3" width="87.7" height="69.3"/>
<rect x="405.8" y="210.8" class="st10" width="87.7" height="69.3"/>
<rect x="405.8" y="210.8" class="st3" width="87.7" height="69.3"/>
<rect x="405.8" y="280.2" class="st16" width="87.7" height="69.3"/>
<rect x="405.8" y="280.2" class="st3" width="87.7" height="69.3"/>
<rect x="405.8" y="349.5" class="st17" width="87.7" height="69.3"/>
<rect x="405.8" y="349.5" class="st3" width="87.7" height="69.3"/>
<rect x="405.8" y="418.8" class="st18" width="87.7" height="69.3"/>
<rect x="405.8" y="418.8" class="st3" width="87.7" height="69.3"/>
<rect x="405.8" y="488.1" class="st19" width="87.7" height="69.3"/>
<rect x="405.8" y="488.1" class="st3" width="87.7" height="69.3"/>
<rect x="493.5" y="72.2" class="st6" width="87.7" height="69.3"/>
<rect x="493.5" y="72.2" class="st3" width="87.7" height="69.3"/>
<rect x="493.5" y="141.5" class="st6" width="87.7" height="69.3"/>
<rect x="493.5" y="141.5" class="st3" width="87.7" height="69.3"/>
<rect x="493.5" y="210.8" class="st6" width="87.7" height="69.3"/>
<rect x="493.5" y="210.8" class="st3" width="87.7" height="69.3"/>
<rect x="493.5" y="280.2" class="st17" width="87.7" height="69.3"/>
<rect x="493.5" y="280.2" class="st3" width="87.7" height="69.3"/>
<rect x="493.5" y="349.5" class="st20" width="87.7" height="69.3"/>
<rect x="493.5" y="349.5" class="st3" width="87.7" height="69.3"/>
<rect x="493.5" y="418.8" class="st21" width="87.7" height="69.3"/>
<rect x="493.5" y="418.8" class="st3" width="87.7" height="69.3"/>
<rect x="493.5" y="488.1" class="st14" width="87.7" height="69.3"/>
<rect x="493.5" y="488.1" class="st3" width="87.7" height="69.3"/>
<rect x="581.2" y="72.2" class="st7" width="87.7" height="69.3"/>
<rect x="581.2" y="72.2" class="st3" width="87.7" height="69.3"/>
<rect x="581.2" y="141.5" class="st7" width="87.7" height="69.3"/>
<rect x="581.2" y="141.5" class="st3" width="87.7" height="69.3"/>
<rect x="581.2" y="210.8" class="st9" width="87.7" height="69.3"/>
<rect x="581.2" y="210.8" class="st3" width="87.7" height="69.3"/>
<rect x="581.2" y="280.2" class="st10" width="87.7" height="69.3"/>
<rect x="581.2" y="280.2" class="st3" width="87.7" height="69.3"/>
<rect x="581.2" y="349.5" class="st22" width="87.7" height="69.3"/>
<rect x="581.2" y="349.5" class="st3" width="87.7" height="69.3"/>
<rect x="581.2" y="418.8" class="st21" width="87.7" height="69.3"/>
<rect x="581.2" y="418.8" class="st3" width="87.7" height="69.3"/>
<rect x="581.2" y="488.1" class="st21" width="87.7" height="69.3"/>
<rect x="581.2" y="488.1" class="st3" width="87.7" height="69.3"/>
<g>
	<path d="M96,566.7l1.1-0.1c0.1,0.6,0.3,1,0.6,1.3s0.6,0.4,1.1,0.4c0.5,0,0.9-0.2,1.3-0.5s0.5-0.8,0.5-1.3c0-0.5-0.2-0.9-0.5-1.2
		s-0.7-0.5-1.2-0.5c-0.2,0-0.4,0-0.7,0.1l0.1-0.9c0.1,0,0.1,0,0.2,0c0.4,0,0.9-0.1,1.2-0.4s0.5-0.6,0.5-1.1c0-0.4-0.1-0.7-0.4-1
		s-0.6-0.4-1-0.4c-0.4,0-0.8,0.1-1,0.4s-0.4,0.6-0.5,1.2l-1.1-0.2c0.1-0.7,0.4-1.3,0.9-1.6s1-0.6,1.7-0.6c0.5,0,0.9,0.1,1.3,0.3
		s0.7,0.5,0.9,0.8s0.3,0.7,0.3,1.1c0,0.4-0.1,0.7-0.3,1s-0.5,0.5-0.9,0.7c0.5,0.1,0.9,0.4,1.2,0.7s0.4,0.8,0.4,1.4
		c0,0.8-0.3,1.4-0.8,1.9s-1.2,0.8-2.1,0.8c-0.8,0-1.4-0.2-1.9-0.7S96.1,567.4,96,566.7z"/>
</g>
<g>
	<path d="M183.8,561.5v-1h5.6v0.8c-0.5,0.6-1.1,1.4-1.6,2.3s-1,2-1.2,3c-0.2,0.7-0.3,1.5-0.4,2.4H185c0-0.7,0.1-1.5,0.4-2.4
		s0.6-1.9,1.1-2.8s1-1.6,1.5-2.2H183.8z"/>
</g>
<g>
	<path d="M276.9,568v1h-5.7c0-0.3,0-0.5,0.1-0.7c0.1-0.4,0.4-0.8,0.7-1.1s0.8-0.8,1.4-1.3c0.9-0.8,1.6-1.4,1.9-1.8s0.5-0.9,0.5-1.3
		c0-0.4-0.1-0.8-0.4-1.1s-0.7-0.4-1.2-0.4c-0.5,0-0.9,0.2-1.2,0.5s-0.5,0.7-0.5,1.3l-1.1-0.1c0.1-0.8,0.4-1.4,0.8-1.8s1.1-0.6,2-0.6
		c0.8,0,1.5,0.2,2,0.7s0.7,1,0.7,1.7c0,0.3-0.1,0.7-0.2,1s-0.4,0.7-0.7,1s-0.9,0.9-1.6,1.5c-0.6,0.5-1,0.9-1.2,1.1s-0.3,0.4-0.4,0.6
		H276.9z"/>
</g>
<g>
	<path d="M362.5,569v-2.1h-3.7v-1l3.9-5.6h0.9v5.6h1.2v1h-1.2v2.1H362.5z M362.5,566v-3.9l-2.7,3.9H362.5z"/>
</g>
<g>
	<path d="M446.8,566.8l1.1-0.1c0.1,0.5,0.3,0.9,0.6,1.2s0.7,0.4,1.1,0.4c0.5,0,0.9-0.2,1.3-0.6s0.5-0.9,0.5-1.5
		c0-0.6-0.2-1.1-0.5-1.4s-0.8-0.5-1.3-0.5c-0.3,0-0.6,0.1-0.9,0.2s-0.5,0.4-0.6,0.6l-1-0.1l0.8-4.4h4.3v1h-3.4l-0.5,2.3
		c0.5-0.4,1.1-0.5,1.6-0.5c0.8,0,1.4,0.3,1.9,0.8s0.8,1.2,0.8,2c0,0.8-0.2,1.4-0.7,2c-0.6,0.7-1.3,1-2.3,1c-0.8,0-1.4-0.2-1.9-0.7
		S446.8,567.5,446.8,566.8z"/>
</g>
<g>
	<path d="M538.4,569h-1.1v-6.7c-0.3,0.2-0.6,0.5-1,0.7s-0.8,0.4-1.1,0.5v-1c0.6-0.3,1.1-0.6,1.5-1s0.8-0.8,0.9-1.1h0.7V569z"/>
</g>
<g>
	<path d="M627.6,562.5l-1,0.1c-0.1-0.4-0.2-0.7-0.4-0.9c-0.3-0.3-0.6-0.5-1.1-0.5c-0.3,0-0.6,0.1-0.9,0.3c-0.3,0.2-0.6,0.6-0.8,1.1
		s-0.3,1.1-0.3,2c0.3-0.4,0.6-0.7,0.9-0.9s0.8-0.3,1.2-0.3c0.7,0,1.3,0.3,1.8,0.8s0.7,1.2,0.7,2c0,0.5-0.1,1-0.3,1.5s-0.6,0.8-1,1.1
		s-0.9,0.4-1.4,0.4c-0.9,0-1.6-0.3-2.2-1s-0.8-1.7-0.8-3.2c0-1.7,0.3-2.9,0.9-3.6c0.5-0.7,1.3-1,2.2-1c0.7,0,1.2,0.2,1.7,0.6
		S627.5,561.8,627.6,562.5z M623.3,566.2c0,0.4,0.1,0.7,0.2,1s0.4,0.6,0.6,0.8s0.6,0.3,0.9,0.3c0.4,0,0.8-0.2,1.1-0.5
		s0.5-0.8,0.5-1.5c0-0.6-0.2-1.1-0.5-1.4s-0.7-0.5-1.2-0.5c-0.5,0-0.9,0.2-1.2,0.5S623.3,565.7,623.3,566.2z"/>
</g>
<g>
	<path d="M672.3,108.9l1.1-0.1c0.1,0.5,0.3,0.9,0.6,1.2s0.7,0.4,1.1,0.4c0.5,0,0.9-0.2,1.3-0.6s0.5-0.9,0.5-1.5
		c0-0.6-0.2-1.1-0.5-1.4s-0.8-0.5-1.3-0.5c-0.3,0-0.6,0.1-0.9,0.2s-0.5,0.4-0.6,0.6l-1-0.1l0.8-4.4h4.3v1h-3.4l-0.5,2.3
		c0.5-0.4,1.1-0.5,1.6-0.5c0.8,0,1.4,0.3,1.9,0.8s0.8,1.2,0.8,2c0,0.8-0.2,1.4-0.7,2c-0.6,0.7-1.3,1-2.3,1c-0.8,0-1.4-0.2-1.9-0.7
		S672.4,109.7,672.3,108.9z"/>
</g>
<g>
	<path d="M672.3,178.2l1.1-0.1c0.1,0.6,0.3,1,0.6,1.3s0.6,0.4,1.1,0.4c0.5,0,0.9-0.2,1.3-0.5s0.5-0.8,0.5-1.3c0-0.5-0.2-0.9-0.5-1.2
		s-0.7-0.5-1.2-0.5c-0.2,0-0.4,0-0.7,0.1l0.1-0.9c0.1,0,0.1,0,0.2,0c0.4,0,0.9-0.1,1.2-0.4s0.5-0.6,0.5-1.1c0-0.4-0.1-0.7-0.4-1
		s-0.6-0.4-1-0.4c-0.4,0-0.8,0.1-1,0.4s-0.4,0.6-0.5,1.2l-1.1-0.2c0.1-0.7,0.4-1.3,0.9-1.6s1-0.6,1.7-0.6c0.5,0,0.9,0.1,1.3,0.3
		s0.7,0.5,0.9,0.8s0.3,0.7,0.3,1.1c0,0.4-0.1,0.7-0.3,1s-0.5,0.5-0.9,0.7c0.5,0.1,0.9,0.4,1.2,0.7s0.4,0.8,0.4,1.4
		c0,0.8-0.3,1.4-0.8,1.9s-1.2,0.8-2.1,0.8c-0.8,0-1.4-0.2-1.9-0.7S672.4,178.9,672.3,178.2z"/>
</g>
<g>
	<path d="M675.7,249.8v-2.1H672v-1l3.9-5.6h0.9v5.6h1.2v1h-1.2v2.1H675.7z M675.7,246.8v-3.9l-2.7,3.9H675.7z"/>
</g>
<g>
	<path d="M676.3,319.1h-1.1v-6.7c-0.3,0.2-0.6,0.5-1,0.7s-0.8,0.4-1.1,0.5v-1c0.6-0.3,1.1-0.6,1.5-1s0.8-0.8,0.9-1.1h0.7V319.1z"/>
</g>
<g>
	<path d="M677.9,387.4v1h-5.7c0-0.3,0-0.5,0.1-0.7c0.1-0.4,0.4-0.8,0.7-1.1s0.8-0.8,1.4-1.3c0.9-0.8,1.6-1.4,1.9-1.8
		s0.5-0.9,0.5-1.3c0-0.4-0.1-0.8-0.4-1.1s-0.7-0.4-1.2-0.4c-0.5,0-0.9,0.2-1.2,0.5s-0.5,0.7-0.5,1.3l-1.1-0.1
		c0.1-0.8,0.4-1.4,0.8-1.8s1.1-0.6,2-0.6c0.8,0,1.5,0.2,2,0.7s0.7,1,0.7,1.7c0,0.3-0.1,0.7-0.2,1s-0.4,0.7-0.7,1s-0.9,0.9-1.6,1.5
		c-0.6,0.5-1,0.9-1.2,1.1s-0.3,0.4-0.4,0.6H677.9z"/>
</g>
<g>
	<path d="M677.8,451.2l-1,0.1c-0.1-0.4-0.2-0.7-0.4-0.9c-0.3-0.3-0.6-0.5-1.1-0.5c-0.3,0-0.6,0.1-0.9,0.3c-0.3,0.2-0.6,0.6-0.8,1.1
		s-0.3,1.1-0.3,2c0.3-0.4,0.6-0.7,0.9-0.9s0.8-0.3,1.2-0.3c0.7,0,1.3,0.3,1.8,0.8s0.7,1.2,0.7,2c0,0.5-0.1,1-0.3,1.5s-0.6,0.8-1,1.1
		s-0.9,0.4-1.4,0.4c-0.9,0-1.6-0.3-2.2-1s-0.8-1.7-0.8-3.2c0-1.7,0.3-2.9,0.9-3.6c0.5-0.7,1.3-1,2.2-1c0.7,0,1.2,0.2,1.7,0.6
		S677.7,450.6,677.8,451.2z M673.5,454.9c0,0.4,0.1,0.7,0.2,1s0.4,0.6,0.6,0.8s0.6,0.3,0.9,0.3c0.4,0,0.8-0.2,1.1-0.5
		s0.5-0.8,0.5-1.5c0-0.6-0.2-1.1-0.5-1.4s-0.7-0.5-1.2-0.5c-0.5,0-0.9,0.2-1.2,0.5S673.5,454.4,673.5,454.9z"/>
</g>
<g>
	<path d="M672.4,519.6v-1h5.6v0.8c-0.5,0.6-1.1,1.4-1.6,2.3s-1,2-1.2,3c-0.2,0.7-0.3,1.5-0.4,2.4h-1.1c0-0.7,0.1-1.5,0.4-2.4
		s0.6-1.9,1.1-2.8s1-1.6,1.5-2.2H672.4z"/>
</g>
<rect x="685.5" y="220.7" class="st13" width="10" height="1.5"/>
<rect x="685.5" y="219.2" class="st23" width="10" height="1.5"/>
<rect x="685.5" y="217.7" class="st24" width="10" height="1.5"/>
<rect x="685.5" y="216.2" class="st4" width="10" height="1.5"/>
<rect x="685.5" y="214.7" class="st25" width="10" height="1.5"/>
<rect x="685.5" y="213.2" class="st26" width="10" height="1.5"/>
<rect x="685.5" y="211.7" class="st27" width="10" height="1.5"/>
<rect x="685.5" y="210.2" class="st2" width="10" height="1.5"/>
<rect x="685.5" y="208.7" class="st28" width="10" height="1.5"/>
<rect x="685.5" y="207.2" class="st29" width="10" height="1.5"/>
<rect x="685.5" y="205.7" class="st30" width="10" height="1.5"/>
<rect x="685.5" y="204.2" class="st8" width="10" height="1.5"/>
<rect x="685.5" y="202.7" class="st31" width="10" height="1.5"/>
<rect x="685.5" y="201.2" class="st32" width="10" height="1.5"/>
<rect x="685.5" y="199.7" class="st33" width="10" height="1.5"/>
<rect x="685.5" y="198.2" class="st5" width="10" height="1.5"/>
<rect x="685.5" y="196.7" class="st34" width="10" height="1.5"/>
<rect x="685.5" y="195.2" class="st35" width="10" height="1.5"/>
<rect x="685.5" y="193.7" class="st36" width="10" height="1.5"/>
<rect x="685.5" y="192.2" class="st12" width="10" height="1.5"/>
<rect x="685.5" y="190.7" class="st37" width="10" height="1.5"/>
<rect x="685.5" y="189.2" class="st38" width="10" height="1.5"/>
<rect x="685.5" y="187.7" class="st39" width="10" height="1.5"/>
<rect x="685.5" y="186.2" class="st9" width="10" height="1.5"/>
<rect x="685.5" y="184.7" class="st40" width="10" height="1.5"/>
<rect x="685.5" y="183.2" class="st41" width="10" height="1.5"/>
<rect x="685.5" y="181.7" class="st7" width="10" height="1.5"/>
<rect x="685.5" y="180.2" class="st42" width="10" height="1.5"/>
<rect x="685.5" y="178.7" class="st43" width="10" height="1.5"/>
<rect x="685.5" y="177.2" class="st44" width="10" height="1.5"/>
<rect x="685.5" y="175.7" class="st6" width="10" height="1.5"/>
<rect x="685.5" y="174.2" class="st45" width="10" height="1.5"/>
<rect x="685.5" y="172.7" class="st46" width="10" height="1.5"/>
<rect x="685.5" y="171.2" class="st47" width="10" height="1.5"/>
<rect x="685.5" y="169.7" class="st11" width="10" height="1.5"/>
<rect x="685.5" y="168.2" class="st48" width="10" height="1.5"/>
<rect x="685.5" y="166.7" class="st49" width="10" height="1.5"/>
<rect x="685.5" y="165.2" class="st50" width="10" height="1.5"/>
<rect x="685.5" y="163.7" class="st10" width="10" height="1.5"/>
<rect x="685.5" y="162.2" class="st51" width="10" height="1.5"/>
<rect x="685.5" y="160.7" class="st52" width="10" height="1.5"/>
<rect x="685.5" y="159.2" class="st53" width="10" height="1.5"/>
<rect x="685.5" y="157.7" class="st15" width="10" height="1.5"/>
<rect x="685.5" y="156.2" class="st54" width="10" height="1.5"/>
<rect x="685.5" y="154.7" class="st55" width="10" height="1.5"/>
<rect x="685.5" y="153.2" class="st56" width="10" height="1.5"/>
<rect x="685.5" y="151.7" class="st22" width="10" height="1.5"/>
<rect x="685.5" y="150.2" class="st57" width="10" height="1.5"/>
<rect x="685.5" y="148.7" class="st58" width="10" height="1.5"/>
<rect x="685.5" y="147.2" class="st59" width="10" height="1.5"/>
<rect x="685.5" y="145.7" class="st60" width="10" height="1.5"/>
<rect x="685.5" y="144.2" class="st61" width="10" height="1.5"/>
<rect x="685.5" y="142.7" class="st62" width="10" height="1.5"/>
<rect x="685.5" y="141.2" class="st20" width="10" height="1.5"/>
<rect x="685.5" y="139.7" class="st63" width="10" height="1.5"/>
<rect x="685.5" y="138.2" class="st64" width="10" height="1.5"/>
<rect x="685.5" y="136.7" class="st65" width="10" height="1.5"/>
<rect x="685.5" y="135.2" class="st14" width="10" height="1.5"/>
<rect x="685.5" y="133.7" class="st66" width="10" height="1.5"/>
<rect x="685.5" y="132.2" class="st67" width="10" height="1.5"/>
<rect x="685.5" y="130.7" class="st68" width="10" height="1.5"/>
<rect x="685.5" y="129.2" class="st17" width="10" height="1.5"/>
<rect x="685.5" y="127.7" class="st69" width="10" height="1.5"/>
<rect x="685.5" y="126.2" class="st70" width="10" height="1.5"/>
<rect x="685.5" y="124.7" class="st71" width="10" height="1.5"/>
<rect x="685.5" y="123.2" class="st21" width="10" height="1.5"/>
<rect x="685.5" y="121.7" class="st72" width="10" height="1.5"/>
<rect x="685.5" y="120.2" class="st73" width="10" height="1.5"/>
<rect x="685.5" y="118.7" class="st74" width="10" height="1.5"/>
<rect x="685.5" y="117.2" class="st16" width="10" height="1.5"/>
<rect x="685.5" y="115.7" class="st75" width="10" height="1.5"/>
<rect x="685.5" y="114.2" class="st76" width="10" height="1.5"/>
<rect x="685.5" y="112.7" class="st77" width="10" height="1.5"/>
<rect x="685.5" y="111.2" class="st78" width="10" height="1.5"/>
<rect x="685.5" y="109.7" class="st79" width="10" height="1.5"/>
<rect x="685.5" y="108.2" class="st80" width="10" height="1.5"/>
<rect x="685.5" y="106.7" class="st81" width="10" height="1.5"/>
<rect x="685.5" y="105.2" class="st82" width="10" height="1.5"/>
<rect x="685.5" y="103.7" class="st83" width="10" height="1.5"/>
<rect x="685.5" y="102.2" class="st84" width="10" height="1.5"/>
<rect x="685.5" y="100.7" class="st85" width="10" height="1.5"/>
<rect x="685.5" y="99.2" class="st86" width="10" height="1.5"/>
<rect x="685.5" y="97.7" class="st87" width="10" height="1.5"/>
<rect x="685.5" y="96.2" class="st88" width="10" height="1.5"/>
<rect x="685.5" y="94.7" class="st89" width="10" height="1.5"/>
<rect x="685.5" y="93.2" class="st90" width="10" height="1.5"/>
<rect x="685.5" y="91.7" class="st91" width="10" height="1.5"/>
<rect x="685.5" y="90.2" class="st92" width="10" height="1.5"/>
<rect x="685.5" y="88.7" class="st19" width="10" height="1.5"/>
<rect x="685.5" y="87.2" class="st93" width="10" height="1.5"/>
<rect x="685.5" y="85.7" class="st94" width="10" height="1.5"/>
<rect x="685.5" y="84.2" class="st95" width="10" height="1.5"/>
<rect x="685.5" y="82.7" class="st96" width="10" height="1.5"/>
<rect x="685.5" y="81.2" class="st97" width="10" height="1.5"/>
<rect x="685.5" y="79.7" class="st98" width="10" height="1.5"/>
<rect x="685.5" y="78.2" class="st99" width="10" height="1.5"/>
<rect x="685.5" y="76.7" class="st100" width="10" height="1.5"/>
<rect x="685.5" y="75.2" class="st101" width="10" height="1.5"/>
<rect x="685.5" y="73.7" class="st102" width="10" height="1.5"/>
<rect x="685.5" y="72.2" class="st18" width="10" height="1.5"/>
<g>
	<path d="M700,212.8l1.1-0.1c0.1,0.5,0.3,0.9,0.6,1.2s0.7,0.4,1.1,0.4c0.5,0,0.9-0.2,1.3-0.6s0.5-0.9,0.5-1.5c0-0.6-0.2-1.1-0.5-1.4
		s-0.8-0.5-1.3-0.5c-0.3,0-0.6,0.1-0.9,0.2s-0.5,0.4-0.6,0.6l-1-0.1l0.8-4.4h4.3v1h-3.4l-0.5,2.3c0.5-0.4,1.1-0.5,1.6-0.5
		c0.8,0,1.4,0.3,1.9,0.8s0.8,1.2,0.8,2c0,0.8-0.2,1.4-0.7,2c-0.6,0.7-1.3,1-2.3,1c-0.8,0-1.4-0.2-1.9-0.7S700.1,213.5,700,212.8z"/>
</g>
<g>
	<path d="M704,186.2h-1.1v-6.7c-0.3,0.2-0.6,0.5-1,0.7s-0.8,0.4-1.1,0.5v-1c0.6-0.3,1.1-0.6,1.5-1s0.8-0.8,0.9-1.1h0.7V186.2z"/>
	<path d="M706.7,181.9c0-1,0.1-1.8,0.3-2.5s0.5-1.1,0.9-1.4s0.9-0.5,1.6-0.5c0.5,0,0.9,0.1,1.2,0.3s0.6,0.5,0.9,0.8s0.4,0.8,0.5,1.3
		s0.2,1.2,0.2,2c0,1-0.1,1.8-0.3,2.4s-0.5,1.1-0.9,1.4s-0.9,0.5-1.6,0.5c-0.8,0-1.5-0.3-2-0.9C707,184.7,706.7,183.5,706.7,181.9z
		 M707.8,181.9c0,1.4,0.2,2.3,0.5,2.8s0.7,0.7,1.2,0.7s0.9-0.2,1.2-0.7s0.5-1.4,0.5-2.8c0-1.4-0.2-2.4-0.5-2.8s-0.7-0.7-1.2-0.7
		c-0.5,0-0.9,0.2-1.2,0.6C707.9,179.5,707.8,180.5,707.8,181.9z"/>
</g>
<g>
	<path d="M704,157.3h-1.1v-6.7c-0.3,0.2-0.6,0.5-1,0.7s-0.8,0.4-1.1,0.5v-1c0.6-0.3,1.1-0.6,1.5-1s0.8-0.8,0.9-1.1h0.7V157.3z"/>
	<path d="M706.7,155.1l1.1-0.1c0.1,0.5,0.3,0.9,0.6,1.2s0.7,0.4,1.1,0.4c0.5,0,0.9-0.2,1.3-0.6s0.5-0.9,0.5-1.5
		c0-0.6-0.2-1.1-0.5-1.4s-0.8-0.5-1.3-0.5c-0.3,0-0.6,0.1-0.9,0.2s-0.5,0.4-0.6,0.6l-1-0.1l0.8-4.4h4.3v1h-3.4l-0.5,2.3
		c0.5-0.4,1.1-0.5,1.6-0.5c0.8,0,1.4,0.3,1.9,0.8s0.8,1.2,0.8,2c0,0.8-0.2,1.4-0.7,2c-0.6,0.7-1.3,1-2.3,1c-0.8,0-1.4-0.2-1.9-0.7
		S706.8,155.8,706.7,155.1z"/>
</g>
<g>
	<path d="M705.6,127.4v1h-5.7c0-0.3,0-0.5,0.1-0.7c0.1-0.4,0.4-0.8,0.7-1.1s0.8-0.8,1.4-1.3c0.9-0.8,1.6-1.4,1.9-1.8
		s0.5-0.9,0.5-1.3c0-0.4-0.1-0.8-0.4-1.1s-0.7-0.4-1.2-0.4c-0.5,0-0.9,0.2-1.2,0.5s-0.5,0.7-0.5,1.3l-1.1-0.1
		c0.1-0.8,0.4-1.4,0.8-1.8s1.1-0.6,2-0.6c0.8,0,1.5,0.2,2,0.7s0.7,1,0.7,1.7c0,0.3-0.1,0.7-0.2,1s-0.4,0.7-0.7,1s-0.9,0.9-1.6,1.5
		c-0.6,0.5-1,0.9-1.2,1.1s-0.3,0.4-0.4,0.6H705.6z"/>
	<path d="M706.7,124.2c0-1,0.1-1.8,0.3-2.5s0.5-1.1,0.9-1.4s0.9-0.5,1.6-0.5c0.5,0,0.9,0.1,1.2,0.3s0.6,0.5,0.9,0.8s0.4,0.8,0.5,1.3
		s0.2,1.2,0.2,2c0,1-0.1,1.8-0.3,2.4s-0.5,1.1-0.9,1.4s-0.9,0.5-1.6,0.5c-0.8,0-1.5-0.3-2-0.9C707,127,706.7,125.8,706.7,124.2z
		 M707.8,124.2c0,1.4,0.2,2.3,0.5,2.8s0.7,0.7,1.2,0.7s0.9-0.2,1.2-0.7s0.5-1.4,0.5-2.8c0-1.4-0.2-2.4-0.5-2.8s-0.7-0.7-1.2-0.7
		c-0.5,0-0.9,0.2-1.2,0.6C707.9,121.8,707.8,122.8,707.8,124.2z"/>
</g>
<g>
	<path d="M705.6,98.6v1h-5.7c0-0.3,0-0.5,0.1-0.7c0.1-0.4,0.4-0.8,0.7-1.1s0.8-0.8,1.4-1.3c0.9-0.8,1.6-1.4,1.9-1.8s0.5-0.9,0.5-1.3
		c0-0.4-0.1-0.8-0.4-1.1s-0.7-0.4-1.2-0.4c-0.5,0-0.9,0.2-1.2,0.5s-0.5,0.7-0.5,1.3l-1.1-0.1c0.1-0.8,0.4-1.4,0.8-1.8s1.1-0.6,2-0.6
		c0.8,0,1.5,0.2,2,0.7s0.7,1,0.7,1.7c0,0.3-0.1,0.7-0.2,1s-0.4,0.7-0.7,1s-0.9,0.9-1.6,1.5c-0.6,0.5-1,0.9-1.2,1.1s-0.3,0.4-0.4,0.6
		H705.6z"/>
	<path d="M706.7,97.4l1.1-0.1c0.1,0.5,0.3,0.9,0.6,1.2s0.7,0.4,1.1,0.4c0.5,0,0.9-0.2,1.3-0.6s0.5-0.9,0.5-1.5
		c0-0.6-0.2-1.1-0.5-1.4s-0.8-0.5-1.3-0.5c-0.3,0-0.6,0.1-0.9,0.2s-0.5,0.4-0.6,0.6l-1-0.1l0.8-4.4h4.3v1h-3.4l-0.5,2.3
		c0.5-0.4,1.1-0.5,1.6-0.5c0.8,0,1.4,0.3,1.9,0.8s0.8,1.2,0.8,2c0,0.8-0.2,1.4-0.7,2c-0.6,0.7-1.3,1-2.3,1c-0.8,0-1.4-0.2-1.9-0.7
		S706.8,98.1,706.7,97.4z"/>
</g>
</svg>
