<?xml version="1.0" encoding="utf-8"?>
<!-- Generator: Adobe Illustrator 22.1.0, SVG Export Plug-In . SVG Version: 6.00 Build 0)  -->
<svg version="1.1" id="图层_1" xmlns="http://www.w3.org/2000/svg" xmlns:xlink="http://www.w3.org/1999/xlink" x="0px" y="0px"
	 viewBox="0 0 468 720" style="enable-background:new 0 0 468 720;" xml:space="preserve">
<style type="text/css">
	
		.st0{clip-path:url(#SVGID_2_);fill:none;stroke:#000000;stroke-width:0.75;stroke-linecap:round;stroke-linejoin:round;stroke-miterlimit:10;}
	
		.st1{clip-path:url(#SVGID_4_);fill:none;stroke:#000000;stroke-width:0.75;stroke-linecap:round;stroke-linejoin:round;stroke-miterlimit:10;}
	.st2{fill:#FF0000;}
	.st3{fill:none;stroke:#999999;stroke-width:0.75;stroke-linecap:round;stroke-linejoin:round;stroke-miterlimit:10;}
	.st4{fill:#FF2424;}
	.st5{fill:#FFABAB;}
	.st6{fill:#FFBBBB;}
	.st7{fill:#FFA6A6;}
	.st8{fill:#FFD5D5;}
	.st9{fill:#FFD0D0;}
	.st10{fill:#FFFFFF;}
	.st11{fill:#FFDFDF;}
	.st12{fill:#FFDADA;}
	.st13{fill:#FFEAEA;}
	.st14{fill:#FFEFEF;}
	.st15{fill:#FF9191;}
	.st16{fill:#FFC0C0;}
	.st17{fill:#FFF4F4;}
	.st18{fill:#FF3E3E;}
	.st19{fill:#FFCACA;}
	.st20{fill:#FFB6B6;}
	.st21{fill:#FFE4E4;}
	.st22{fill:#FFF9F9;}
	.st23{fill:#FF5858;}
	.st24{fill:#FF9696;}
	.st25{fill:#FFB0B0;}
	.st26{fill:#FF4848;}
	.st27{fill:#FFC5C5;}
	.st28{fill:#FF7C7C;}
	.st29{fill:#FF9C9C;}
	.st30{font-family:'ArialMT';}
	.st31{font-size:10px;}
	.st32{fill:#FFA1A1;}
	.st33{fill:#FF8C8C;}
	.st34{fill:#FF8787;}
	.st35{fill:#FF8282;}
	.st36{fill:#FF7777;}
	.st37{fill:#FF7272;}
	.st38{fill:#FF6D6D;}
	.st39{fill:#FF6868;}
	.st40{fill:#FF6262;}
	.st41{fill:#FF5D5D;}
	.st42{fill:#FF5353;}
	.st43{fill:#FF4E4E;}
	.st44{fill:#FF4343;}
	.st45{fill:#FF3939;}
	.st46{fill:#FF3434;}
	.st47{fill:#FF2E2E;}
	.st48{fill:#FF2929;}
	.st49{fill:#FF1F1F;}
	.st50{fill:#FF1A1A;}
	.st51{fill:#FF1414;}
	.st52{fill:#FF0F0F;}
	.st53{fill:#FF0A0A;}
	.st54{fill:#FF0505;}
</style>
<g>
	<defs>
		<rect id="SVGID_1_" x="55" width="309.7" height="55"/>
	</defs>
	<clipPath id="SVGID_2_">
		<use xlink:href="#SVGID_1_"  style="overflow:visible;"/>
	</clipPath>
	<polyline class="st0" points="244.3,55 244.3,43.9 278.7,43.9 278.7,55 	"/>
	<polyline class="st0" points="313.1,55 313.1,43.7 347.5,43.7 347.5,55 	"/>
	<polyline class="st0" points="106.6,55 106.6,40.6 141,40.6 141,55 	"/>
	<polyline class="st0" points="175.4,55 175.4,33 209.9,33 209.9,55 	"/>
	<polyline class="st0" points="261.5,43.9 261.5,32 330.3,32 330.3,43.7 	"/>
	<polyline class="st0" points="72.2,55 72.2,20.7 123.8,20.7 123.8,40.6 	"/>
	<polyline class="st0" points="192.6,33 192.6,19.5 295.9,19.5 295.9,32 	"/>
	<polyline class="st0" points="98,20.7 98,2.6 244.3,2.6 244.3,19.5 	"/>
</g>
<g>
	<defs>
		<rect id="SVGID_3_" y="55" width="55" height="638"/>
	</defs>
	<clipPath id="SVGID_4_">
		<use xlink:href="#SVGID_3_"  style="overflow:visible;"/>
	</clipPath>
	<polyline class="st1" points="55,656.2 54.4,656.2 54.4,680.8 55,680.8 	"/>
	<polyline class="st1" points="55,459.9 53.9,459.9 53.9,484.5 55,484.5 	"/>
	<polyline class="st1" points="55,533.5 53.5,533.5 53.5,558.1 55,558.1 	"/>
	<polyline class="st1" points="55,435.4 52.7,435.4 52.7,472.2 53.9,472.2 	"/>
	<polyline class="st1" points="55,410.8 52.6,410.8 52.6,453.8 52.7,453.8 	"/>
	<polyline class="st1" points="55,288.1 52.4,288.1 52.4,312.7 55,312.7 	"/>
	<polyline class="st1" points="55,631.7 52.3,631.7 52.3,668.5 54.4,668.5 	"/>
	<polyline class="st1" points="55,509 52,509 52,545.8 53.5,545.8 	"/>
	<polyline class="st1" points="55,263.6 51.7,263.6 51.7,300.4 52.4,300.4 	"/>
	<polyline class="st1" points="55,190 51.3,190 51.3,214.5 55,214.5 	"/>
	<polyline class="st1" points="52.6,432.3 50.1,432.3 50.1,527.4 52,527.4 	"/>
	<polyline class="st1" points="55,607.2 50,607.2 50,650.1 52.3,650.1 	"/>
	<polyline class="st1" points="55,386.3 49.4,386.3 49.4,479.9 50.1,479.9 	"/>
	<polyline class="st1" points="55,582.6 49.1,582.6 49.1,628.6 50,628.6 	"/>
	<polyline class="st1" points="55,337.2 48.9,337.2 48.9,361.8 55,361.8 	"/>
	<polyline class="st1" points="55,239 48.7,239 48.7,282 51.7,282 	"/>
	<polyline class="st1" points="55,165.4 48.5,165.4 48.5,202.2 51.3,202.2 	"/>
	<polyline class="st1" points="49.4,433.1 46.6,433.1 46.6,605.6 49.1,605.6 	"/>
	<polyline class="st1" points="48.9,349.5 45.8,349.5 45.8,519.3 46.6,519.3 	"/>
	<polyline class="st1" points="55,116.3 43.3,116.3 43.3,140.9 55,140.9 	"/>
	<polyline class="st1" points="48.7,260.5 41.6,260.5 41.6,434.4 45.8,434.4 	"/>
	<polyline class="st1" points="48.5,183.8 37.3,183.8 37.3,347.5 41.6,347.5 	"/>
	<polyline class="st1" points="43.3,128.6 22.9,128.6 22.9,265.6 37.3,265.6 	"/>
	<polyline class="st1" points="55,91.8 15.4,91.8 15.4,197.1 22.9,197.1 	"/>
	<polyline class="st1" points="55,67.3 2.6,67.3 2.6,144.5 15.4,144.5 	"/>
</g>
<rect x="55" y="55" class="st2" width="34.4" height="24.5"/>
<rect x="55" y="55" class="st3" width="34.4" height="24.5"/>
<rect x="55" y="79.5" class="st4" width="34.4" height="24.5"/>
<rect x="55" y="79.5" class="st3" width="34.4" height="24.5"/>
<rect x="55" y="104.1" class="st5" width="34.4" height="24.5"/>
<rect x="55" y="104.1" class="st3" width="34.4" height="24.5"/>
<rect x="55" y="128.6" class="st6" width="34.4" height="24.5"/>
<rect x="55" y="128.6" class="st3" width="34.4" height="24.5"/>
<rect x="55" y="153.2" class="st7" width="34.4" height="24.5"/>
<rect x="55" y="153.2" class="st3" width="34.4" height="24.5"/>
<rect x="55" y="177.7" class="st8" width="34.4" height="24.5"/>
<rect x="55" y="177.7" class="st3" width="34.4" height="24.5"/>
<rect x="55" y="202.2" class="st9" width="34.4" height="24.5"/>
<rect x="55" y="202.2" class="st3" width="34.4" height="24.5"/>
<rect x="55" y="226.8" class="st10" width="34.4" height="24.5"/>
<rect x="55" y="226.8" class="st3" width="34.4" height="24.5"/>
<rect x="55" y="251.3" class="st10" width="34.4" height="24.5"/>
<rect x="55" y="251.3" class="st3" width="34.4" height="24.5"/>
<rect x="55" y="275.9" class="st10" width="34.4" height="24.5"/>
<rect x="55" y="275.9" class="st3" width="34.4" height="24.5"/>
<rect x="55" y="300.4" class="st10" width="34.4" height="24.5"/>
<rect x="55" y="300.4" class="st3" width="34.4" height="24.5"/>
<rect x="55" y="324.9" class="st11" width="34.4" height="24.5"/>
<rect x="55" y="324.9" class="st3" width="34.4" height="24.5"/>
<rect x="55" y="349.5" class="st12" width="34.4" height="24.5"/>
<rect x="55" y="349.5" class="st3" width="34.4" height="24.5"/>
<rect x="55" y="374" class="st10" width="34.4" height="24.5"/>
<rect x="55" y="374" class="st3" width="34.4" height="24.5"/>
<rect x="55" y="398.6" class="st10" width="34.4" height="24.5"/>
<rect x="55" y="398.6" class="st3" width="34.4" height="24.5"/>
<rect x="55" y="423.1" class="st10" width="34.4" height="24.5"/>
<rect x="55" y="423.1" class="st3" width="34.4" height="24.5"/>
<rect x="55" y="447.6" class="st10" width="34.4" height="24.5"/>
<rect x="55" y="447.6" class="st3" width="34.4" height="24.5"/>
<rect x="55" y="472.2" class="st10" width="34.4" height="24.5"/>
<rect x="55" y="472.2" class="st3" width="34.4" height="24.5"/>
<rect x="55" y="496.7" class="st10" width="34.4" height="24.5"/>
<rect x="55" y="496.7" class="st3" width="34.4" height="24.5"/>
<rect x="55" y="521.3" class="st10" width="34.4" height="24.5"/>
<rect x="55" y="521.3" class="st3" width="34.4" height="24.5"/>
<rect x="55" y="545.8" class="st10" width="34.4" height="24.5"/>
<rect x="55" y="545.8" class="st3" width="34.4" height="24.5"/>
<rect x="55" y="570.3" class="st10" width="34.4" height="24.5"/>
<rect x="55" y="570.3" class="st3" width="34.4" height="24.5"/>
<rect x="55" y="594.9" class="st10" width="34.4" height="24.5"/>
<rect x="55" y="594.9" class="st3" width="34.4" height="24.5"/>
<rect x="55" y="619.4" class="st10" width="34.4" height="24.5"/>
<rect x="55" y="619.4" class="st3" width="34.4" height="24.5"/>
<rect x="55" y="644" class="st13" width="34.4" height="24.5"/>
<rect x="55" y="644" class="st3" width="34.4" height="24.5"/>
<rect x="55" y="668.5" class="st14" width="34.4" height="24.5"/>
<rect x="55" y="668.5" class="st3" width="34.4" height="24.5"/>
<rect x="89.4" y="55" class="st2" width="34.4" height="24.5"/>
<rect x="89.4" y="55" class="st3" width="34.4" height="24.5"/>
<rect x="89.4" y="79.5" class="st10" width="34.4" height="24.5"/>
<rect x="89.4" y="79.5" class="st3" width="34.4" height="24.5"/>
<rect x="89.4" y="104.1" class="st15" width="34.4" height="24.5"/>
<rect x="89.4" y="104.1" class="st3" width="34.4" height="24.5"/>
<rect x="89.4" y="128.6" class="st16" width="34.4" height="24.5"/>
<rect x="89.4" y="128.6" class="st3" width="34.4" height="24.5"/>
<rect x="89.4" y="153.2" class="st6" width="34.4" height="24.5"/>
<rect x="89.4" y="153.2" class="st3" width="34.4" height="24.5"/>
<rect x="89.4" y="177.7" class="st16" width="34.4" height="24.5"/>
<rect x="89.4" y="177.7" class="st3" width="34.4" height="24.5"/>
<rect x="89.4" y="202.2" class="st12" width="34.4" height="24.5"/>
<rect x="89.4" y="202.2" class="st3" width="34.4" height="24.5"/>
<rect x="89.4" y="226.8" class="st10" width="34.4" height="24.5"/>
<rect x="89.4" y="226.8" class="st3" width="34.4" height="24.5"/>
<rect x="89.4" y="251.3" class="st10" width="34.4" height="24.5"/>
<rect x="89.4" y="251.3" class="st3" width="34.4" height="24.5"/>
<rect x="89.4" y="275.9" class="st10" width="34.4" height="24.5"/>
<rect x="89.4" y="275.9" class="st3" width="34.4" height="24.5"/>
<rect x="89.4" y="300.4" class="st10" width="34.4" height="24.5"/>
<rect x="89.4" y="300.4" class="st3" width="34.4" height="24.5"/>
<rect x="89.4" y="324.9" class="st10" width="34.4" height="24.5"/>
<rect x="89.4" y="324.9" class="st3" width="34.4" height="24.5"/>
<rect x="89.4" y="349.5" class="st10" width="34.4" height="24.5"/>
<rect x="89.4" y="349.5" class="st3" width="34.4" height="24.5"/>
<rect x="89.4" y="374" class="st10" width="34.4" height="24.5"/>
<rect x="89.4" y="374" class="st3" width="34.4" height="24.5"/>
<rect x="89.4" y="398.6" class="st10" width="34.4" height="24.5"/>
<rect x="89.4" y="398.6" class="st3" width="34.4" height="24.5"/>
<rect x="89.4" y="423.1" class="st10" width="34.4" height="24.5"/>
<rect x="89.4" y="423.1" class="st3" width="34.4" height="24.5"/>
<rect x="89.4" y="447.6" class="st10" width="34.4" height="24.5"/>
<rect x="89.4" y="447.6" class="st3" width="34.4" height="24.5"/>
<rect x="89.4" y="472.2" class="st10" width="34.4" height="24.5"/>
<rect x="89.4" y="472.2" class="st3" width="34.4" height="24.5"/>
<rect x="89.4" y="496.7" class="st10" width="34.4" height="24.5"/>
<rect x="89.4" y="496.7" class="st3" width="34.4" height="24.5"/>
<rect x="89.4" y="521.3" class="st10" width="34.4" height="24.5"/>
<rect x="89.4" y="521.3" class="st3" width="34.4" height="24.5"/>
<rect x="89.4" y="545.8" class="st10" width="34.4" height="24.5"/>
<rect x="89.4" y="545.8" class="st3" width="34.4" height="24.5"/>
<rect x="89.4" y="570.3" class="st10" width="34.4" height="24.5"/>
<rect x="89.4" y="570.3" class="st3" width="34.4" height="24.5"/>
<rect x="89.4" y="594.9" class="st10" width="34.4" height="24.5"/>
<rect x="89.4" y="594.9" class="st3" width="34.4" height="24.5"/>
<rect x="89.4" y="619.4" class="st13" width="34.4" height="24.5"/>
<rect x="89.4" y="619.4" class="st3" width="34.4" height="24.5"/>
<rect x="89.4" y="644" class="st14" width="34.4" height="24.5"/>
<rect x="89.4" y="644" class="st3" width="34.4" height="24.5"/>
<rect x="89.4" y="668.5" class="st17" width="34.4" height="24.5"/>
<rect x="89.4" y="668.5" class="st3" width="34.4" height="24.5"/>
<rect x="123.8" y="55" class="st18" width="34.4" height="24.5"/>
<rect x="123.8" y="55" class="st3" width="34.4" height="24.5"/>
<rect x="123.8" y="79.5" class="st10" width="34.4" height="24.5"/>
<rect x="123.8" y="79.5" class="st3" width="34.4" height="24.5"/>
<rect x="123.8" y="104.1" class="st19" width="34.4" height="24.5"/>
<rect x="123.8" y="104.1" class="st3" width="34.4" height="24.5"/>
<rect x="123.8" y="128.6" class="st20" width="34.4" height="24.5"/>
<rect x="123.8" y="128.6" class="st3" width="34.4" height="24.5"/>
<rect x="123.8" y="153.2" class="st19" width="34.4" height="24.5"/>
<rect x="123.8" y="153.2" class="st3" width="34.4" height="24.5"/>
<rect x="123.8" y="177.7" class="st11" width="34.4" height="24.5"/>
<rect x="123.8" y="177.7" class="st3" width="34.4" height="24.5"/>
<rect x="123.8" y="202.2" class="st11" width="34.4" height="24.5"/>
<rect x="123.8" y="202.2" class="st3" width="34.4" height="24.5"/>
<rect x="123.8" y="226.8" class="st10" width="34.4" height="24.5"/>
<rect x="123.8" y="226.8" class="st3" width="34.4" height="24.5"/>
<rect x="123.8" y="251.3" class="st10" width="34.4" height="24.5"/>
<rect x="123.8" y="251.3" class="st3" width="34.4" height="24.5"/>
<rect x="123.8" y="275.9" class="st10" width="34.4" height="24.5"/>
<rect x="123.8" y="275.9" class="st3" width="34.4" height="24.5"/>
<rect x="123.8" y="300.4" class="st10" width="34.4" height="24.5"/>
<rect x="123.8" y="300.4" class="st3" width="34.4" height="24.5"/>
<rect x="123.8" y="324.9" class="st21" width="34.4" height="24.5"/>
<rect x="123.8" y="324.9" class="st3" width="34.4" height="24.5"/>
<rect x="123.8" y="349.5" class="st10" width="34.4" height="24.5"/>
<rect x="123.8" y="349.5" class="st3" width="34.4" height="24.5"/>
<rect x="123.8" y="374" class="st10" width="34.4" height="24.5"/>
<rect x="123.8" y="374" class="st3" width="34.4" height="24.5"/>
<rect x="123.8" y="398.6" class="st10" width="34.4" height="24.5"/>
<rect x="123.8" y="398.6" class="st3" width="34.4" height="24.5"/>
<rect x="123.8" y="423.1" class="st10" width="34.4" height="24.5"/>
<rect x="123.8" y="423.1" class="st3" width="34.4" height="24.5"/>
<rect x="123.8" y="447.6" class="st10" width="34.4" height="24.5"/>
<rect x="123.8" y="447.6" class="st3" width="34.4" height="24.5"/>
<rect x="123.8" y="472.2" class="st10" width="34.4" height="24.5"/>
<rect x="123.8" y="472.2" class="st3" width="34.4" height="24.5"/>
<rect x="123.8" y="496.7" class="st10" width="34.4" height="24.5"/>
<rect x="123.8" y="496.7" class="st3" width="34.4" height="24.5"/>
<rect x="123.8" y="521.3" class="st10" width="34.4" height="24.5"/>
<rect x="123.8" y="521.3" class="st3" width="34.4" height="24.5"/>
<rect x="123.8" y="545.8" class="st10" width="34.4" height="24.5"/>
<rect x="123.8" y="545.8" class="st3" width="34.4" height="24.5"/>
<rect x="123.8" y="570.3" class="st10" width="34.4" height="24.5"/>
<rect x="123.8" y="570.3" class="st3" width="34.4" height="24.5"/>
<rect x="123.8" y="594.9" class="st14" width="34.4" height="24.5"/>
<rect x="123.8" y="594.9" class="st3" width="34.4" height="24.5"/>
<rect x="123.8" y="619.4" class="st22" width="34.4" height="24.5"/>
<rect x="123.8" y="619.4" class="st3" width="34.4" height="24.5"/>
<rect x="123.8" y="644" class="st17" width="34.4" height="24.5"/>
<rect x="123.8" y="644" class="st3" width="34.4" height="24.5"/>
<rect x="123.8" y="668.5" class="st17" width="34.4" height="24.5"/>
<rect x="123.8" y="668.5" class="st3" width="34.4" height="24.5"/>
<rect x="158.2" y="55" class="st10" width="34.4" height="24.5"/>
<rect x="158.2" y="55" class="st3" width="34.4" height="24.5"/>
<rect x="158.2" y="79.5" class="st23" width="34.4" height="24.5"/>
<rect x="158.2" y="79.5" class="st3" width="34.4" height="24.5"/>
<rect x="158.2" y="104.1" class="st24" width="34.4" height="24.5"/>
<rect x="158.2" y="104.1" class="st3" width="34.4" height="24.5"/>
<rect x="158.2" y="128.6" class="st25" width="34.4" height="24.5"/>
<rect x="158.2" y="128.6" class="st3" width="34.4" height="24.5"/>
<rect x="158.2" y="153.2" class="st10" width="34.4" height="24.5"/>
<rect x="158.2" y="153.2" class="st3" width="34.4" height="24.5"/>
<rect x="158.2" y="177.7" class="st10" width="34.4" height="24.5"/>
<rect x="158.2" y="177.7" class="st3" width="34.4" height="24.5"/>
<rect x="158.2" y="202.2" class="st10" width="34.4" height="24.5"/>
<rect x="158.2" y="202.2" class="st3" width="34.4" height="24.5"/>
<rect x="158.2" y="226.8" class="st10" width="34.4" height="24.5"/>
<rect x="158.2" y="226.8" class="st3" width="34.4" height="24.5"/>
<rect x="158.2" y="251.3" class="st10" width="34.4" height="24.5"/>
<rect x="158.2" y="251.3" class="st3" width="34.4" height="24.5"/>
<rect x="158.2" y="275.9" class="st10" width="34.4" height="24.5"/>
<rect x="158.2" y="275.9" class="st3" width="34.4" height="24.5"/>
<rect x="158.2" y="300.4" class="st10" width="34.4" height="24.5"/>
<rect x="158.2" y="300.4" class="st3" width="34.4" height="24.5"/>
<rect x="158.2" y="324.9" class="st14" width="34.4" height="24.5"/>
<rect x="158.2" y="324.9" class="st3" width="34.4" height="24.5"/>
<rect x="158.2" y="349.5" class="st8" width="34.4" height="24.5"/>
<rect x="158.2" y="349.5" class="st3" width="34.4" height="24.5"/>
<rect x="158.2" y="374" class="st10" width="34.4" height="24.5"/>
<rect x="158.2" y="374" class="st3" width="34.4" height="24.5"/>
<rect x="158.2" y="398.6" class="st10" width="34.4" height="24.5"/>
<rect x="158.2" y="398.6" class="st3" width="34.4" height="24.5"/>
<rect x="158.2" y="423.1" class="st10" width="34.4" height="24.5"/>
<rect x="158.2" y="423.1" class="st3" width="34.4" height="24.5"/>
<rect x="158.2" y="447.6" class="st10" width="34.4" height="24.5"/>
<rect x="158.2" y="447.6" class="st3" width="34.4" height="24.5"/>
<rect x="158.2" y="472.2" class="st10" width="34.4" height="24.5"/>
<rect x="158.2" y="472.2" class="st3" width="34.4" height="24.5"/>
<rect x="158.2" y="496.7" class="st10" width="34.4" height="24.5"/>
<rect x="158.2" y="496.7" class="st3" width="34.4" height="24.5"/>
<rect x="158.2" y="521.3" class="st10" width="34.4" height="24.5"/>
<rect x="158.2" y="521.3" class="st3" width="34.4" height="24.5"/>
<rect x="158.2" y="545.8" class="st10" width="34.4" height="24.5"/>
<rect x="158.2" y="545.8" class="st3" width="34.4" height="24.5"/>
<rect x="158.2" y="570.3" class="st14" width="34.4" height="24.5"/>
<rect x="158.2" y="570.3" class="st3" width="34.4" height="24.5"/>
<rect x="158.2" y="594.9" class="st10" width="34.4" height="24.5"/>
<rect x="158.2" y="594.9" class="st3" width="34.4" height="24.5"/>
<rect x="158.2" y="619.4" class="st10" width="34.4" height="24.5"/>
<rect x="158.2" y="619.4" class="st3" width="34.4" height="24.5"/>
<rect x="158.2" y="644" class="st10" width="34.4" height="24.5"/>
<rect x="158.2" y="644" class="st3" width="34.4" height="24.5"/>
<rect x="158.2" y="668.5" class="st10" width="34.4" height="24.5"/>
<rect x="158.2" y="668.5" class="st3" width="34.4" height="24.5"/>
<rect x="192.6" y="55" class="st7" width="34.4" height="24.5"/>
<rect x="192.6" y="55" class="st3" width="34.4" height="24.5"/>
<rect x="192.6" y="79.5" class="st26" width="34.4" height="24.5"/>
<rect x="192.6" y="79.5" class="st3" width="34.4" height="24.5"/>
<rect x="192.6" y="104.1" class="st25" width="34.4" height="24.5"/>
<rect x="192.6" y="104.1" class="st3" width="34.4" height="24.5"/>
<rect x="192.6" y="128.6" class="st27" width="34.4" height="24.5"/>
<rect x="192.6" y="128.6" class="st3" width="34.4" height="24.5"/>
<rect x="192.6" y="153.2" class="st14" width="34.4" height="24.5"/>
<rect x="192.6" y="153.2" class="st3" width="34.4" height="24.5"/>
<rect x="192.6" y="177.7" class="st17" width="34.4" height="24.5"/>
<rect x="192.6" y="177.7" class="st3" width="34.4" height="24.5"/>
<rect x="192.6" y="202.2" class="st14" width="34.4" height="24.5"/>
<rect x="192.6" y="202.2" class="st3" width="34.4" height="24.5"/>
<rect x="192.6" y="226.8" class="st8" width="34.4" height="24.5"/>
<rect x="192.6" y="226.8" class="st3" width="34.4" height="24.5"/>
<rect x="192.6" y="251.3" class="st21" width="34.4" height="24.5"/>
<rect x="192.6" y="251.3" class="st3" width="34.4" height="24.5"/>
<rect x="192.6" y="275.9" class="st8" width="34.4" height="24.5"/>
<rect x="192.6" y="275.9" class="st3" width="34.4" height="24.5"/>
<rect x="192.6" y="300.4" class="st21" width="34.4" height="24.5"/>
<rect x="192.6" y="300.4" class="st3" width="34.4" height="24.5"/>
<rect x="192.6" y="324.9" class="st21" width="34.4" height="24.5"/>
<rect x="192.6" y="324.9" class="st3" width="34.4" height="24.5"/>
<rect x="192.6" y="349.5" class="st11" width="34.4" height="24.5"/>
<rect x="192.6" y="349.5" class="st3" width="34.4" height="24.5"/>
<rect x="192.6" y="374" class="st19" width="34.4" height="24.5"/>
<rect x="192.6" y="374" class="st3" width="34.4" height="24.5"/>
<rect x="192.6" y="398.6" class="st17" width="34.4" height="24.5"/>
<rect x="192.6" y="398.6" class="st3" width="34.4" height="24.5"/>
<rect x="192.6" y="423.1" class="st17" width="34.4" height="24.5"/>
<rect x="192.6" y="423.1" class="st3" width="34.4" height="24.5"/>
<rect x="192.6" y="447.6" class="st21" width="34.4" height="24.5"/>
<rect x="192.6" y="447.6" class="st3" width="34.4" height="24.5"/>
<rect x="192.6" y="472.2" class="st13" width="34.4" height="24.5"/>
<rect x="192.6" y="472.2" class="st3" width="34.4" height="24.5"/>
<rect x="192.6" y="496.7" class="st17" width="34.4" height="24.5"/>
<rect x="192.6" y="496.7" class="st3" width="34.4" height="24.5"/>
<rect x="192.6" y="521.3" class="st12" width="34.4" height="24.5"/>
<rect x="192.6" y="521.3" class="st3" width="34.4" height="24.5"/>
<rect x="192.6" y="545.8" class="st21" width="34.4" height="24.5"/>
<rect x="192.6" y="545.8" class="st3" width="34.4" height="24.5"/>
<rect x="192.6" y="570.3" class="st10" width="34.4" height="24.5"/>
<rect x="192.6" y="570.3" class="st3" width="34.4" height="24.5"/>
<rect x="192.6" y="594.9" class="st10" width="34.4" height="24.5"/>
<rect x="192.6" y="594.9" class="st3" width="34.4" height="24.5"/>
<rect x="192.6" y="619.4" class="st10" width="34.4" height="24.5"/>
<rect x="192.6" y="619.4" class="st3" width="34.4" height="24.5"/>
<rect x="192.6" y="644" class="st10" width="34.4" height="24.5"/>
<rect x="192.6" y="644" class="st3" width="34.4" height="24.5"/>
<rect x="192.6" y="668.5" class="st10" width="34.4" height="24.5"/>
<rect x="192.6" y="668.5" class="st3" width="34.4" height="24.5"/>
<rect x="227.1" y="55" class="st10" width="34.4" height="24.5"/>
<rect x="227.1" y="55" class="st3" width="34.4" height="24.5"/>
<rect x="227.1" y="79.5" class="st10" width="34.4" height="24.5"/>
<rect x="227.1" y="79.5" class="st3" width="34.4" height="24.5"/>
<rect x="227.1" y="104.1" class="st28" width="34.4" height="24.5"/>
<rect x="227.1" y="104.1" class="st3" width="34.4" height="24.5"/>
<rect x="227.1" y="128.6" class="st25" width="34.4" height="24.5"/>
<rect x="227.1" y="128.6" class="st3" width="34.4" height="24.5"/>
<rect x="227.1" y="153.2" class="st10" width="34.4" height="24.5"/>
<rect x="227.1" y="153.2" class="st3" width="34.4" height="24.5"/>
<rect x="227.1" y="177.7" class="st10" width="34.4" height="24.5"/>
<rect x="227.1" y="177.7" class="st3" width="34.4" height="24.5"/>
<rect x="227.1" y="202.2" class="st10" width="34.4" height="24.5"/>
<rect x="227.1" y="202.2" class="st3" width="34.4" height="24.5"/>
<rect x="227.1" y="226.8" class="st10" width="34.4" height="24.5"/>
<rect x="227.1" y="226.8" class="st3" width="34.4" height="24.5"/>
<rect x="227.1" y="251.3" class="st10" width="34.4" height="24.5"/>
<rect x="227.1" y="251.3" class="st3" width="34.4" height="24.5"/>
<rect x="227.1" y="275.9" class="st10" width="34.4" height="24.5"/>
<rect x="227.1" y="275.9" class="st3" width="34.4" height="24.5"/>
<rect x="227.1" y="300.4" class="st10" width="34.4" height="24.5"/>
<rect x="227.1" y="300.4" class="st3" width="34.4" height="24.5"/>
<rect x="227.1" y="324.9" class="st10" width="34.4" height="24.5"/>
<rect x="227.1" y="324.9" class="st3" width="34.4" height="24.5"/>
<rect x="227.1" y="349.5" class="st10" width="34.4" height="24.5"/>
<rect x="227.1" y="349.5" class="st3" width="34.4" height="24.5"/>
<rect x="227.1" y="374" class="st10" width="34.4" height="24.5"/>
<rect x="227.1" y="374" class="st3" width="34.4" height="24.5"/>
<rect x="227.1" y="398.6" class="st10" width="34.4" height="24.5"/>
<rect x="227.1" y="398.6" class="st3" width="34.4" height="24.5"/>
<rect x="227.1" y="423.1" class="st10" width="34.4" height="24.5"/>
<rect x="227.1" y="423.1" class="st3" width="34.4" height="24.5"/>
<rect x="227.1" y="447.6" class="st10" width="34.4" height="24.5"/>
<rect x="227.1" y="447.6" class="st3" width="34.4" height="24.5"/>
<rect x="227.1" y="472.2" class="st10" width="34.4" height="24.5"/>
<rect x="227.1" y="472.2" class="st3" width="34.4" height="24.5"/>
<rect x="227.1" y="496.7" class="st10" width="34.4" height="24.5"/>
<rect x="227.1" y="496.7" class="st3" width="34.4" height="24.5"/>
<rect x="227.1" y="521.3" class="st10" width="34.4" height="24.5"/>
<rect x="227.1" y="521.3" class="st3" width="34.4" height="24.5"/>
<rect x="227.1" y="545.8" class="st10" width="34.4" height="24.5"/>
<rect x="227.1" y="545.8" class="st3" width="34.4" height="24.5"/>
<rect x="227.1" y="570.3" class="st21" width="34.4" height="24.5"/>
<rect x="227.1" y="570.3" class="st3" width="34.4" height="24.5"/>
<rect x="227.1" y="594.9" class="st10" width="34.4" height="24.5"/>
<rect x="227.1" y="594.9" class="st3" width="34.4" height="24.5"/>
<rect x="227.1" y="619.4" class="st10" width="34.4" height="24.5"/>
<rect x="227.1" y="619.4" class="st3" width="34.4" height="24.5"/>
<rect x="227.1" y="644" class="st10" width="34.4" height="24.5"/>
<rect x="227.1" y="644" class="st3" width="34.4" height="24.5"/>
<rect x="227.1" y="668.5" class="st10" width="34.4" height="24.5"/>
<rect x="227.1" y="668.5" class="st3" width="34.4" height="24.5"/>
<rect x="261.5" y="55" class="st10" width="34.4" height="24.5"/>
<rect x="261.5" y="55" class="st3" width="34.4" height="24.5"/>
<rect x="261.5" y="79.5" class="st10" width="34.4" height="24.5"/>
<rect x="261.5" y="79.5" class="st3" width="34.4" height="24.5"/>
<rect x="261.5" y="104.1" class="st16" width="34.4" height="24.5"/>
<rect x="261.5" y="104.1" class="st3" width="34.4" height="24.5"/>
<rect x="261.5" y="128.6" class="st5" width="34.4" height="24.5"/>
<rect x="261.5" y="128.6" class="st3" width="34.4" height="24.5"/>
<rect x="261.5" y="153.2" class="st10" width="34.4" height="24.5"/>
<rect x="261.5" y="153.2" class="st3" width="34.4" height="24.5"/>
<rect x="261.5" y="177.7" class="st10" width="34.4" height="24.5"/>
<rect x="261.5" y="177.7" class="st3" width="34.4" height="24.5"/>
<rect x="261.5" y="202.2" class="st10" width="34.4" height="24.5"/>
<rect x="261.5" y="202.2" class="st3" width="34.4" height="24.5"/>
<rect x="261.5" y="226.8" class="st10" width="34.4" height="24.5"/>
<rect x="261.5" y="226.8" class="st3" width="34.4" height="24.5"/>
<rect x="261.5" y="251.3" class="st10" width="34.4" height="24.5"/>
<rect x="261.5" y="251.3" class="st3" width="34.4" height="24.5"/>
<rect x="261.5" y="275.9" class="st10" width="34.4" height="24.5"/>
<rect x="261.5" y="275.9" class="st3" width="34.4" height="24.5"/>
<rect x="261.5" y="300.4" class="st10" width="34.4" height="24.5"/>
<rect x="261.5" y="300.4" class="st3" width="34.4" height="24.5"/>
<rect x="261.5" y="324.9" class="st17" width="34.4" height="24.5"/>
<rect x="261.5" y="324.9" class="st3" width="34.4" height="24.5"/>
<rect x="261.5" y="349.5" class="st10" width="34.4" height="24.5"/>
<rect x="261.5" y="349.5" class="st3" width="34.4" height="24.5"/>
<rect x="261.5" y="374" class="st10" width="34.4" height="24.5"/>
<rect x="261.5" y="374" class="st3" width="34.4" height="24.5"/>
<rect x="261.5" y="398.6" class="st10" width="34.4" height="24.5"/>
<rect x="261.5" y="398.6" class="st3" width="34.4" height="24.5"/>
<rect x="261.5" y="423.1" class="st10" width="34.4" height="24.5"/>
<rect x="261.5" y="423.1" class="st3" width="34.4" height="24.5"/>
<rect x="261.5" y="447.6" class="st10" width="34.4" height="24.5"/>
<rect x="261.5" y="447.6" class="st3" width="34.4" height="24.5"/>
<rect x="261.5" y="472.2" class="st10" width="34.4" height="24.5"/>
<rect x="261.5" y="472.2" class="st3" width="34.4" height="24.5"/>
<rect x="261.5" y="496.7" class="st10" width="34.4" height="24.5"/>
<rect x="261.5" y="496.7" class="st3" width="34.4" height="24.5"/>
<rect x="261.5" y="521.3" class="st10" width="34.4" height="24.5"/>
<rect x="261.5" y="521.3" class="st3" width="34.4" height="24.5"/>
<rect x="261.5" y="545.8" class="st10" width="34.4" height="24.5"/>
<rect x="261.5" y="545.8" class="st3" width="34.4" height="24.5"/>
<rect x="261.5" y="570.3" class="st14" width="34.4" height="24.5"/>
<rect x="261.5" y="570.3" class="st3" width="34.4" height="24.5"/>
<rect x="261.5" y="594.9" class="st13" width="34.4" height="24.5"/>
<rect x="261.5" y="594.9" class="st3" width="34.4" height="24.5"/>
<rect x="261.5" y="619.4" class="st10" width="34.4" height="24.5"/>
<rect x="261.5" y="619.4" class="st3" width="34.4" height="24.5"/>
<rect x="261.5" y="644" class="st10" width="34.4" height="24.5"/>
<rect x="261.5" y="644" class="st3" width="34.4" height="24.5"/>
<rect x="261.5" y="668.5" class="st10" width="34.4" height="24.5"/>
<rect x="261.5" y="668.5" class="st3" width="34.4" height="24.5"/>
<rect x="295.9" y="55" class="st7" width="34.4" height="24.5"/>
<rect x="295.9" y="55" class="st3" width="34.4" height="24.5"/>
<rect x="295.9" y="79.5" class="st10" width="34.4" height="24.5"/>
<rect x="295.9" y="79.5" class="st3" width="34.4" height="24.5"/>
<rect x="295.9" y="104.1" class="st29" width="34.4" height="24.5"/>
<rect x="295.9" y="104.1" class="st3" width="34.4" height="24.5"/>
<rect x="295.9" y="128.6" class="st27" width="34.4" height="24.5"/>
<rect x="295.9" y="128.6" class="st3" width="34.4" height="24.5"/>
<rect x="295.9" y="153.2" class="st17" width="34.4" height="24.5"/>
<rect x="295.9" y="153.2" class="st3" width="34.4" height="24.5"/>
<rect x="295.9" y="177.7" class="st13" width="34.4" height="24.5"/>
<rect x="295.9" y="177.7" class="st3" width="34.4" height="24.5"/>
<rect x="295.9" y="202.2" class="st17" width="34.4" height="24.5"/>
<rect x="295.9" y="202.2" class="st3" width="34.4" height="24.5"/>
<rect x="295.9" y="226.8" class="st25" width="34.4" height="24.5"/>
<rect x="295.9" y="226.8" class="st3" width="34.4" height="24.5"/>
<rect x="295.9" y="251.3" class="st19" width="34.4" height="24.5"/>
<rect x="295.9" y="251.3" class="st3" width="34.4" height="24.5"/>
<rect x="295.9" y="275.9" class="st12" width="34.4" height="24.5"/>
<rect x="295.9" y="275.9" class="st3" width="34.4" height="24.5"/>
<rect x="295.9" y="300.4" class="st21" width="34.4" height="24.5"/>
<rect x="295.9" y="300.4" class="st3" width="34.4" height="24.5"/>
<rect x="295.9" y="324.9" class="st10" width="34.4" height="24.5"/>
<rect x="295.9" y="324.9" class="st3" width="34.4" height="24.5"/>
<rect x="295.9" y="349.5" class="st10" width="34.4" height="24.5"/>
<rect x="295.9" y="349.5" class="st3" width="34.4" height="24.5"/>
<rect x="295.9" y="374" class="st17" width="34.4" height="24.5"/>
<rect x="295.9" y="374" class="st3" width="34.4" height="24.5"/>
<rect x="295.9" y="398.6" class="st14" width="34.4" height="24.5"/>
<rect x="295.9" y="398.6" class="st3" width="34.4" height="24.5"/>
<rect x="295.9" y="423.1" class="st14" width="34.4" height="24.5"/>
<rect x="295.9" y="423.1" class="st3" width="34.4" height="24.5"/>
<rect x="295.9" y="447.6" class="st13" width="34.4" height="24.5"/>
<rect x="295.9" y="447.6" class="st3" width="34.4" height="24.5"/>
<rect x="295.9" y="472.2" class="st14" width="34.4" height="24.5"/>
<rect x="295.9" y="472.2" class="st3" width="34.4" height="24.5"/>
<rect x="295.9" y="496.7" class="st10" width="34.4" height="24.5"/>
<rect x="295.9" y="496.7" class="st3" width="34.4" height="24.5"/>
<rect x="295.9" y="521.3" class="st17" width="34.4" height="24.5"/>
<rect x="295.9" y="521.3" class="st3" width="34.4" height="24.5"/>
<rect x="295.9" y="545.8" class="st10" width="34.4" height="24.5"/>
<rect x="295.9" y="545.8" class="st3" width="34.4" height="24.5"/>
<rect x="295.9" y="570.3" class="st10" width="34.4" height="24.5"/>
<rect x="295.9" y="570.3" class="st3" width="34.4" height="24.5"/>
<rect x="295.9" y="594.9" class="st10" width="34.4" height="24.5"/>
<rect x="295.9" y="594.9" class="st3" width="34.4" height="24.5"/>
<rect x="295.9" y="619.4" class="st10" width="34.4" height="24.5"/>
<rect x="295.9" y="619.4" class="st3" width="34.4" height="24.5"/>
<rect x="295.9" y="644" class="st10" width="34.4" height="24.5"/>
<rect x="295.9" y="644" class="st3" width="34.4" height="24.5"/>
<rect x="295.9" y="668.5" class="st10" width="34.4" height="24.5"/>
<rect x="295.9" y="668.5" class="st3" width="34.4" height="24.5"/>
<rect x="330.3" y="55" class="st6" width="34.4" height="24.5"/>
<rect x="330.3" y="55" class="st3" width="34.4" height="24.5"/>
<rect x="330.3" y="79.5" class="st10" width="34.4" height="24.5"/>
<rect x="330.3" y="79.5" class="st3" width="34.4" height="24.5"/>
<rect x="330.3" y="104.1" class="st9" width="34.4" height="24.5"/>
<rect x="330.3" y="104.1" class="st3" width="34.4" height="24.5"/>
<rect x="330.3" y="128.6" class="st16" width="34.4" height="24.5"/>
<rect x="330.3" y="128.6" class="st3" width="34.4" height="24.5"/>
<rect x="330.3" y="153.2" class="st17" width="34.4" height="24.5"/>
<rect x="330.3" y="153.2" class="st3" width="34.4" height="24.5"/>
<rect x="330.3" y="177.7" class="st17" width="34.4" height="24.5"/>
<rect x="330.3" y="177.7" class="st3" width="34.4" height="24.5"/>
<rect x="330.3" y="202.2" class="st17" width="34.4" height="24.5"/>
<rect x="330.3" y="202.2" class="st3" width="34.4" height="24.5"/>
<rect x="330.3" y="226.8" class="st19" width="34.4" height="24.5"/>
<rect x="330.3" y="226.8" class="st3" width="34.4" height="24.5"/>
<rect x="330.3" y="251.3" class="st11" width="34.4" height="24.5"/>
<rect x="330.3" y="251.3" class="st3" width="34.4" height="24.5"/>
<rect x="330.3" y="275.9" class="st19" width="34.4" height="24.5"/>
<rect x="330.3" y="275.9" class="st3" width="34.4" height="24.5"/>
<rect x="330.3" y="300.4" class="st8" width="34.4" height="24.5"/>
<rect x="330.3" y="300.4" class="st3" width="34.4" height="24.5"/>
<rect x="330.3" y="324.9" class="st13" width="34.4" height="24.5"/>
<rect x="330.3" y="324.9" class="st3" width="34.4" height="24.5"/>
<rect x="330.3" y="349.5" class="st10" width="34.4" height="24.5"/>
<rect x="330.3" y="349.5" class="st3" width="34.4" height="24.5"/>
<rect x="330.3" y="374" class="st14" width="34.4" height="24.5"/>
<rect x="330.3" y="374" class="st3" width="34.4" height="24.5"/>
<rect x="330.3" y="398.6" class="st11" width="34.4" height="24.5"/>
<rect x="330.3" y="398.6" class="st3" width="34.4" height="24.5"/>
<rect x="330.3" y="423.1" class="st17" width="34.4" height="24.5"/>
<rect x="330.3" y="423.1" class="st3" width="34.4" height="24.5"/>
<rect x="330.3" y="447.6" class="st14" width="34.4" height="24.5"/>
<rect x="330.3" y="447.6" class="st3" width="34.4" height="24.5"/>
<rect x="330.3" y="472.2" class="st17" width="34.4" height="24.5"/>
<rect x="330.3" y="472.2" class="st3" width="34.4" height="24.5"/>
<rect x="330.3" y="496.7" class="st10" width="34.4" height="24.5"/>
<rect x="330.3" y="496.7" class="st3" width="34.4" height="24.5"/>
<rect x="330.3" y="521.3" class="st10" width="34.4" height="24.5"/>
<rect x="330.3" y="521.3" class="st3" width="34.4" height="24.5"/>
<rect x="330.3" y="545.8" class="st10" width="34.4" height="24.5"/>
<rect x="330.3" y="545.8" class="st3" width="34.4" height="24.5"/>
<rect x="330.3" y="570.3" class="st10" width="34.4" height="24.5"/>
<rect x="330.3" y="570.3" class="st3" width="34.4" height="24.5"/>
<rect x="330.3" y="594.9" class="st14" width="34.4" height="24.5"/>
<rect x="330.3" y="594.9" class="st3" width="34.4" height="24.5"/>
<rect x="330.3" y="619.4" class="st10" width="34.4" height="24.5"/>
<rect x="330.3" y="619.4" class="st3" width="34.4" height="24.5"/>
<rect x="330.3" y="644" class="st10" width="34.4" height="24.5"/>
<rect x="330.3" y="644" class="st3" width="34.4" height="24.5"/>
<rect x="330.3" y="668.5" class="st10" width="34.4" height="24.5"/>
<rect x="330.3" y="668.5" class="st3" width="34.4" height="24.5"/>
<text transform="matrix(-6.123234e-17 1 -1 -6.123234e-17 68.6201 696.0402)" class="st30 st31">3−2</text>
<text transform="matrix(-6.123234e-17 1 -1 -6.123234e-17 103.0303 696.0398)" class="st30 st31">1−2</text>
<text transform="matrix(-6.123234e-17 1 -1 -6.123234e-17 137.4404 696.0399)" class="st30 st31">2−2</text>
<text transform="matrix(-6.123234e-17 1 -1 -6.123234e-17 171.8506 696.0401)" class="st30 st31">3−1</text>
<text transform="matrix(-6.123234e-17 1 -1 -6.123234e-17 206.2607 696.0398)" class="st30 st31">3−3</text>
<text transform="matrix(-6.123234e-17 1 -1 -6.123234e-17 240.6709 696.0399)" class="st30 st31">1−1</text>
<text transform="matrix(-6.123234e-17 1 -1 -6.123234e-17 275.0791 696.0401)" class="st30 st31">2−1</text>
<text transform="matrix(-6.123234e-17 1 -1 -6.123234e-17 309.4893 696.0403)" class="st30 st31">1−3</text>
<text transform="matrix(-6.123234e-17 1 -1 -6.123234e-17 343.8994 696.0404)" class="st30 st31">2−3</text>
<text transform="matrix(1 0 0 1 367.7002 70.8599)" class="st30 st31">Hspa8−Aqp2</text>
<text transform="matrix(1 0 0 1 367.7002 95.3999)" class="st30 st31">Apoe−Sdc4</text>
<text transform="matrix(1 0 0 1 367.7002 119.9399)"><tspan x="0" y="0" class="st30 st31">Spp1−Itg</tspan><tspan x="40.3" y="0" class="st30 st31">a</tspan><tspan x="45.7" y="0" class="st30 st31">v</tspan></text>
<text transform="matrix(1 0 0 1 367.7002 144.48)"><tspan x="0" y="0" class="st30 st31">Hmgb1−Itg</tspan><tspan x="49.2" y="0" class="st30 st31">a</tspan><tspan x="54.6" y="0" class="st30 st31">v</tspan></text>
<text transform="matrix(1 0 0 1 367.7002 169.02)" class="st30 st31">App−Tspan12</text>
<text transform="matrix(1 0 0 1 367.7002 193.5601)"><tspan x="0" y="0" class="st30 st31">Bsg−C</tspan><tspan x="30.3" y="0" class="st30 st31">a</tspan><tspan x="35.7" y="0" class="st30 st31">v1</tspan></text>
<text transform="matrix(1 0 0 1 367.7002 218.1001)"><tspan x="0" y="0" class="st30 st31">App−C</tspan><tspan x="30.9" y="0" class="st30 st31">a</tspan><tspan x="36.2" y="0" class="st30 st31">v1</tspan></text>
<text transform="matrix(1 0 0 1 367.7002 242.6401)" class="st30 st31">Mif−Cd74</text>
<text transform="matrix(1 0 0 1 367.7002 267.1802)" class="st30 st31">Mif−Ackr3</text>
<text transform="matrix(1 0 0 1 367.7002 291.7202)"><tspan x="0" y="0" class="st30 st31">Cst3−L</tspan><tspan x="32" y="0" class="st30 st31">r</tspan><tspan x="35.6" y="0" class="st30 st31">p2</tspan></text>
<text transform="matrix(1 0 0 1 367.7002 316.2598)"><tspan x="0" y="0" class="st30 st31">Clu−L</tspan><tspan x="26.4" y="0" class="st30 st31">r</tspan><tspan x="30" y="0" class="st30 st31">p2</tspan></text>
<text transform="matrix(1 0 0 1 367.7002 340.7998)" class="st30 st31">Gpc3−Cd81</text>
<text transform="matrix(1 0 0 1 367.7002 365.3398)"><tspan x="0" y="0" class="st30 st31">Ccn1−Itg</tspan><tspan x="40.3" y="0" class="st30 st31">a</tspan><tspan x="45.7" y="0" class="st30 st31">v</tspan></text>
<text transform="matrix(1 0 0 1 367.7002 389.8799)"><tspan x="0" y="0" class="st30 st31">Selenop−L</tspan><tspan x="48.1" y="0" class="st30 st31">r</tspan><tspan x="51.7" y="0" class="st30 st31">p2</tspan></text>
<text transform="matrix(1 0 0 1 367.7002 414.4199)"><tspan x="0" y="0" class="st30 st31">Arf4−L</tspan><tspan x="29.7" y="0" class="st30 st31">r</tspan><tspan x="33.4" y="0" class="st30 st31">p2</tspan></text>
<text transform="matrix(1 0 0 1 367.7002 438.96)" class="st30 st31">Gnas−Pth1r</text>
<text transform="matrix(1 0 0 1 367.7002 463.5)" class="st30 st31">App−Cd74</text>
<text transform="matrix(1 0 0 1 367.7002 488.04)"><tspan x="0" y="0" class="st30 st31">App−L</tspan><tspan x="29.2" y="0" class="st30 st31">r</tspan><tspan x="32.8" y="0" class="st30 st31">p2</tspan></text>
<text transform="matrix(1 0 0 1 367.7002 512.5801)"><tspan x="0" y="0" class="st30 st31">Gc−L</tspan><tspan x="24.2" y="0" class="st30 st31">r</tspan><tspan x="27.8" y="0" class="st30 st31">p2</tspan></text>
<text transform="matrix(1 0 0 1 367.7002 537.1201)"><tspan x="0" y="0" class="st30 st31">Tcn2−L</tspan><tspan x="33.6" y="0" class="st30 st31">r</tspan><tspan x="37.3" y="0" class="st30 st31">p2</tspan></text>
<text transform="matrix(1 0 0 1 367.7002 561.6602)"><tspan x="0" y="0" class="st30 st31">Apoe−L</tspan><tspan x="34.8" y="0" class="st30 st31">r</tspan><tspan x="38.4" y="0" class="st30 st31">p2</tspan></text>
<text transform="matrix(1 0 0 1 367.7002 586.2002)" class="st30 st31">Bsg−Slc16a7</text>
<text transform="matrix(1 0 0 1 367.7002 610.7402)"><tspan x="0" y="0" class="st30 st31">Adam10−Itg</tspan><tspan x="54.2" y="0" class="st30 st31">a</tspan><tspan x="59.6" y="0" class="st30 st31">v</tspan></text>
<text transform="matrix(1 0 0 1 367.7002 635.2803)"><tspan x="0" y="0" class="st30 st31">J</tspan><tspan x="4.8" y="0" class="st30 st31">ag1−Notch2</tspan></text>
<text transform="matrix(1 0 0 1 367.7002 659.8203)" class="st30 st31">App−Cd47</text>
<text transform="matrix(1 0 0 1 367.7002 684.3604)" class="st30 st31">App−Notch2</text>
<rect x="439.3" y="202" class="st10" width="10" height="3"/>
<rect x="439.3" y="199" class="st22" width="10" height="3"/>
<rect x="439.3" y="196" class="st17" width="10" height="3"/>
<rect x="439.3" y="193" class="st14" width="10" height="3"/>
<rect x="439.3" y="190" class="st13" width="10" height="3"/>
<rect x="439.3" y="187" class="st21" width="10" height="3"/>
<rect x="439.3" y="184" class="st11" width="10" height="3"/>
<rect x="439.3" y="181" class="st12" width="10" height="3"/>
<rect x="439.3" y="178" class="st8" width="10" height="3"/>
<rect x="439.3" y="175" class="st9" width="10" height="3"/>
<rect x="439.3" y="172" class="st19" width="10" height="3"/>
<rect x="439.3" y="169" class="st27" width="10" height="3"/>
<rect x="439.3" y="166" class="st16" width="10" height="3"/>
<rect x="439.3" y="163" class="st6" width="10" height="3"/>
<rect x="439.3" y="160" class="st20" width="10" height="3"/>
<rect x="439.3" y="157" class="st25" width="10" height="3"/>
<rect x="439.3" y="154" class="st5" width="10" height="3"/>
<rect x="439.3" y="151" class="st7" width="10" height="3"/>
<rect x="439.3" y="148" class="st32" width="10" height="3"/>
<rect x="439.3" y="145" class="st29" width="10" height="3"/>
<rect x="439.3" y="142" class="st24" width="10" height="3"/>
<rect x="439.3" y="139" class="st15" width="10" height="3"/>
<rect x="439.3" y="136" class="st33" width="10" height="3"/>
<rect x="439.3" y="133" class="st34" width="10" height="3"/>
<rect x="439.3" y="130" class="st35" width="10" height="3"/>
<rect x="439.3" y="127" class="st28" width="10" height="3"/>
<rect x="439.3" y="124" class="st36" width="10" height="3"/>
<rect x="439.3" y="121" class="st37" width="10" height="3"/>
<rect x="439.3" y="118" class="st38" width="10" height="3"/>
<rect x="439.3" y="115" class="st39" width="10" height="3"/>
<rect x="439.3" y="112" class="st40" width="10" height="3"/>
<rect x="439.3" y="109" class="st41" width="10" height="3"/>
<rect x="439.3" y="106" class="st23" width="10" height="3"/>
<rect x="439.3" y="103" class="st42" width="10" height="3"/>
<rect x="439.3" y="100" class="st43" width="10" height="3"/>
<rect x="439.3" y="97" class="st26" width="10" height="3"/>
<rect x="439.3" y="94" class="st44" width="10" height="3"/>
<rect x="439.3" y="91" class="st18" width="10" height="3"/>
<rect x="439.3" y="88" class="st45" width="10" height="3"/>
<rect x="439.3" y="85" class="st46" width="10" height="3"/>
<rect x="439.3" y="82" class="st47" width="10" height="3"/>
<rect x="439.3" y="79" class="st48" width="10" height="3"/>
<rect x="439.3" y="76" class="st4" width="10" height="3"/>
<rect x="439.3" y="73" class="st49" width="10" height="3"/>
<rect x="439.3" y="70" class="st50" width="10" height="3"/>
<rect x="439.3" y="67" class="st51" width="10" height="3"/>
<rect x="439.3" y="64" class="st52" width="10" height="3"/>
<rect x="439.3" y="61" class="st53" width="10" height="3"/>
<rect x="439.3" y="58" class="st54" width="10" height="3"/>
<rect x="439.3" y="55" class="st2" width="10" height="3"/>
<text transform="matrix(1 0 0 1 453.2598 208.5898)" class="st30 st31">0</text>
<text transform="matrix(1 0 0 1 453.2598 182.3301)" class="st30 st31">1</text>
<text transform="matrix(1 0 0 1 453.2598 156.0801)" class="st30 st31">2</text>
<text transform="matrix(1 0 0 1 453.2598 129.8198)" class="st30 st31">3</text>
<text transform="matrix(1 0 0 1 453.2598 103.5601)" class="st30 st31">4</text>
<text transform="matrix(1 0 0 1 453.2598 77.2998)" class="st30 st31">5</text>
</svg>
