<?xml version="1.0" encoding="utf-8"?>
<!-- Generator: Adobe Illustrator 22.1.0, SVG Export Plug-In . SVG Version: 6.00 Build 0)  -->
<svg version="1.1" id="图层_1" xmlns="http://www.w3.org/2000/svg" xmlns:xlink="http://www.w3.org/1999/xlink" x="0px" y="0px"
	 viewBox="0 0 720 576" style="enable-background:new 0 0 720 576;" xml:space="preserve">
<style type="text/css">
	
		.st0{opacity:0.102;clip-path:url(#SVGID_2_);fill:none;stroke:#000000;stroke-width:8.67;stroke-linejoin:round;stroke-miterlimit:1;}
	
		.st1{opacity:0.102;clip-path:url(#SVGID_2_);fill:none;stroke:#000000;stroke-width:5.58;stroke-linejoin:round;stroke-miterlimit:1;}
	
		.st2{opacity:0.102;clip-path:url(#SVGID_2_);fill:none;stroke:#000000;stroke-width:10.39;stroke-linejoin:round;stroke-miterlimit:1;}
	
		.st3{opacity:0.102;clip-path:url(#SVGID_2_);fill:none;stroke:#000000;stroke-width:10.74;stroke-linejoin:round;stroke-miterlimit:1;}
	
		.st4{opacity:0.102;clip-path:url(#SVGID_2_);fill:none;stroke:#000000;stroke-width:3.85;stroke-linejoin:round;stroke-miterlimit:1;}
	
		.st5{opacity:0.102;clip-path:url(#SVGID_2_);fill:none;stroke:#000000;stroke-width:7.64;stroke-linejoin:round;stroke-miterlimit:1;}
	
		.st6{opacity:0.102;clip-path:url(#SVGID_2_);fill:none;stroke:#000000;stroke-width:7.3;stroke-linejoin:round;stroke-miterlimit:1;}
	
		.st7{opacity:0.102;clip-path:url(#SVGID_2_);fill:none;stroke:#000000;stroke-width:4.54;stroke-linejoin:round;stroke-miterlimit:1;}
	
		.st8{opacity:0.102;clip-path:url(#SVGID_2_);fill:none;stroke:#000000;stroke-width:2.13;stroke-linejoin:round;stroke-miterlimit:1;}
	
		.st9{opacity:0.102;clip-path:url(#SVGID_2_);fill:none;stroke:#000000;stroke-width:5.92;stroke-linejoin:round;stroke-miterlimit:1;}
	
		.st10{opacity:0.102;clip-path:url(#SVGID_2_);fill:none;stroke:#000000;stroke-width:6.61;stroke-linejoin:round;stroke-miterlimit:1;}
	
		.st11{opacity:0.102;clip-path:url(#SVGID_2_);fill:none;stroke:#000000;stroke-width:4.89;stroke-linejoin:round;stroke-miterlimit:1;}
	
		.st12{opacity:0.102;clip-path:url(#SVGID_2_);fill:none;stroke:#000000;stroke-width:4.2;stroke-linejoin:round;stroke-miterlimit:1;}
	
		.st13{opacity:0.102;clip-path:url(#SVGID_2_);fill:none;stroke:#000000;stroke-width:2.82;stroke-linejoin:round;stroke-miterlimit:1;}
	
		.st14{opacity:0.102;clip-path:url(#SVGID_2_);fill:none;stroke:#000000;stroke-width:12.8;stroke-linejoin:round;stroke-miterlimit:1;}
	
		.st15{opacity:0.102;clip-path:url(#SVGID_2_);fill:none;stroke:#000000;stroke-width:9.71;stroke-linejoin:round;stroke-miterlimit:1;}
	.st16{clip-path:url(#SVGID_2_);fill:#F8766D;}
	
		.st17{clip-path:url(#SVGID_2_);fill:none;stroke:#000000;stroke-width:0.71;stroke-linecap:round;stroke-linejoin:round;stroke-miterlimit:10;}
	.st18{clip-path:url(#SVGID_2_);fill:#C49A00;}
	.st19{clip-path:url(#SVGID_2_);fill:#53B400;}
	.st20{clip-path:url(#SVGID_2_);fill:#00C094;}
	.st21{clip-path:url(#SVGID_2_);fill:#00B6EB;}
	.st22{clip-path:url(#SVGID_2_);fill:#A58AFF;}
	.st23{clip-path:url(#SVGID_2_);fill:#FB61D7;}
	.st24{clip-path:url(#SVGID_2_);}
</style>
<g>
	<defs>
		<rect id="SVGID_1_" x="8.2" y="5.5" width="706.3" height="562.3"/>
	</defs>
	<clipPath id="SVGID_2_">
		<use xlink:href="#SVGID_1_"  style="overflow:visible;"/>
	</clipPath>
	<polyline class="st0" points="593.8,379.6 592,381.3 590.3,382.9 588.5,384.6 586.7,386.2 585,387.9 583.2,389.5 581.4,391.1 
		579.7,392.8 577.9,394.4 576.1,396.1 574.4,397.7 572.6,399.4 570.9,401 569.1,402.6 567.3,404.3 565.6,405.9 563.8,407.6 
		562,409.2 560.3,410.9 558.5,412.5 556.8,414.1 555,415.8 553.2,417.4 551.5,419.1 549.7,420.7 547.9,422.4 546.2,424 544.4,425.6 
		542.7,427.3 540.9,428.9 539.1,430.6 537.4,432.2 535.6,433.8 533.8,435.5 532.1,437.1 530.3,438.8 528.5,440.4 526.8,442 
		525,443.7 523.3,445.3 521.5,447 519.7,448.6 518,450.3 516.2,451.9 514.4,453.5 512.7,455.2 510.9,456.8 509.2,458.5 507.4,460.1 
		505.6,461.8 503.9,463.4 502.1,465 500.3,466.7 498.6,468.3 496.8,470 495,471.6 493.3,473.3 491.5,474.9 489.8,476.5 488,478.2 
		486.2,479.8 484.5,481.5 482.7,483.1 481,484.8 479.2,486.4 477.4,488 475.7,489.7 473.9,491.3 472.1,493 470.4,494.6 468.6,496.2 
		466.9,497.9 465.1,499.5 463.3,501.2 461.6,502.8 459.8,504.5 458,506.1 456.3,507.7 454.5,509.4 452.7,511 451,512.7 449.2,514.3 
		447.5,516 445.7,517.6 443.9,519.2 442.2,520.9 440.4,522.5 438.6,524.2 436.9,525.8 435.1,527.4 433.4,529.1 431.6,530.7 
		429.8,532.4 428.1,534 426.3,535.7 424.5,537.3 422.8,538.9 421,540.6 419.3,542.2 	"/>
	<polyline class="st1" points="593.8,379.6 591.4,376.1 589,372.6 586.5,369.1 584.1,365.6 581.7,362 579.3,358.5 576.9,355 
		574.5,351.5 572,348 569.6,344.4 567.2,340.9 564.8,337.4 562.4,333.9 560,330.4 557.6,326.8 555.2,323.3 552.7,319.8 550.3,316.3 
		547.9,312.8 545.5,309.2 543.1,305.7 540.7,302.2 538.3,298.7 535.8,295.1 533.4,291.6 531,288.1 528.6,284.6 526.2,281 
		523.8,277.5 521.4,274 519,270.5 516.5,267 514.1,263.5 511.7,259.9 509.3,256.4 506.9,252.9 504.5,249.4 502,245.8 499.6,242.3 
		497.2,238.8 494.8,235.3 492.4,231.8 490,228.2 487.6,224.7 485.1,221.2 482.7,217.7 480.3,214.1 477.9,210.6 475.5,207.1 
		473.1,203.6 470.7,200.1 468.3,196.5 465.8,193 463.4,189.5 461,186 458.6,182.5 456.2,178.9 453.8,175.4 451.4,171.9 448.9,168.4 
		446.5,164.9 444.1,161.3 441.7,157.8 439.3,154.3 436.9,150.8 434.5,147.2 432,143.7 429.6,140.2 427.2,136.7 424.8,133.2 
		422.4,129.6 420,126.1 417.6,122.6 415.1,119.1 412.7,115.5 410.3,112 407.9,108.5 405.5,105 403.1,101.5 400.7,97.9 398.3,94.4 
		395.8,90.9 393.4,87.4 391,83.9 388.6,80.3 386.2,76.8 383.8,73.3 381.4,69.8 378.9,66.3 376.5,62.7 374.1,59.2 371.7,55.7 
		369.3,52.2 366.9,48.7 364.5,45.1 362,41.6 359.6,38.1 357.2,34.6 354.8,31 	"/>
	<polyline class="st1" points="593.8,379.6 588.2,379.1 582.6,378.5 577,378 571.4,377.4 565.8,376.8 560.2,376.3 554.6,375.7 
		549,375.1 543.5,374.6 537.9,374 532.3,373.5 526.7,372.9 521.1,372.3 515.5,371.8 509.9,371.2 504.3,370.6 498.7,370.1 
		493.1,369.5 487.6,369 482,368.4 476.4,367.8 470.8,367.3 465.2,366.7 459.6,366.2 454,365.6 448.4,365 442.8,364.5 437.2,363.9 
		431.6,363.3 426.1,362.8 420.5,362.2 414.9,361.7 409.3,361.1 403.7,360.5 398.1,360 392.5,359.4 386.9,358.8 381.3,358.3 
		375.8,357.7 370.2,357.2 364.6,356.6 359,356 353.4,355.5 347.8,354.9 342.2,354.4 336.6,353.8 331,353.2 325.4,352.7 319.8,352.1 
		314.3,351.5 308.7,351 303.1,350.4 297.5,349.9 291.9,349.3 286.3,348.7 280.7,348.2 275.1,347.6 269.5,347 263.9,346.5 
		258.4,345.9 252.8,345.4 247.2,344.8 241.6,344.2 236,343.7 230.4,343.1 224.8,342.5 219.2,342 213.6,341.4 208,340.9 202.4,340.3 
		196.9,339.7 191.3,339.2 185.7,338.6 180.1,338 174.5,337.5 168.9,336.9 163.3,336.4 157.7,335.8 152.1,335.2 146.5,334.7 
		140.9,334.1 135.4,333.5 129.8,333 124.2,332.4 118.6,331.9 113,331.3 107.4,330.7 101.8,330.2 96.2,329.6 90.6,329 85.1,328.5 
		79.5,327.9 73.9,327.4 68.3,326.8 62.7,326.2 57.1,325.7 51.5,325.1 45.9,324.5 40.3,324 	"/>
	<polyline class="st2" points="593.8,379.6 593.5,377.4 593.2,375.1 592.9,372.8 592.6,370.5 592.3,368.2 592,365.9 591.8,363.6 
		591.5,361.3 591.2,359 590.9,356.7 590.6,354.4 590.3,352.1 590,349.8 589.7,347.5 589.4,345.2 589.1,342.9 588.8,340.6 
		588.6,338.3 588.3,336 588,333.7 587.7,331.4 587.4,329.1 587.1,326.8 586.8,324.5 586.5,322.2 586.2,319.9 586,317.6 585.7,315.3 
		585.4,313 585.1,310.7 584.8,308.4 584.5,306.1 584.2,303.8 583.9,301.5 583.6,299.2 583.3,296.9 583,294.6 582.8,292.3 582.5,290 
		582.2,287.7 581.9,285.4 581.6,283.1 581.3,280.8 581,278.5 580.7,276.2 580.5,274 580.2,271.6 579.9,269.4 579.6,267 579.3,264.8 
		579,262.5 578.7,260.2 578.4,257.9 578.1,255.6 577.8,253.3 577.5,251 577.3,248.7 577,246.4 576.7,244.1 576.4,241.8 576.1,239.5 
		575.8,237.2 575.5,234.9 575.2,232.6 574.9,230.3 574.7,228 574.4,225.7 574.1,223.4 573.8,221.1 573.5,218.8 573.2,216.5 
		572.9,214.2 572.6,211.9 572.3,209.6 572,207.3 571.8,205 571.5,202.7 571.2,200.4 570.9,198.1 570.6,195.8 570.3,193.5 570,191.2 
		569.7,188.9 569.4,186.6 569.2,184.3 568.9,182 568.6,179.7 568.3,177.4 568,175.1 567.7,172.8 567.4,170.5 567.1,168.2 
		566.8,165.9 566.5,163.6 566.3,161.4 566,159 565.7,156.8 565.4,154.5 565.1,152.1 	"/>
	<polyline class="st3" points="593.8,379.6 589.5,381 585.3,382.4 581,383.8 576.8,385.2 572.5,386.6 568.3,388 564,389.4 
		559.8,390.8 555.5,392.2 551.3,393.6 547,395 542.8,396.4 538.5,397.8 534.3,399.1 530,400.5 525.8,401.9 521.5,403.3 517.3,404.7 
		513,406.1 508.8,407.5 504.5,408.9 500.3,410.3 496,411.7 491.8,413.1 487.5,414.5 483.3,415.8 479,417.2 474.8,418.6 470.5,420 
		466.3,421.4 462,422.8 457.8,424.2 453.5,425.6 449.2,427 445,428.4 440.7,429.8 436.5,431.1 432.2,432.5 428,433.9 423.7,435.3 
		419.5,436.7 415.2,438.1 411,439.5 406.7,440.9 402.5,442.3 398.2,443.7 394,445.1 389.7,446.5 385.5,447.9 381.2,449.2 377,450.6 
		372.7,452 368.5,453.4 364.2,454.8 360,456.2 355.7,457.6 351.5,459 347.2,460.4 343,461.8 338.7,463.2 334.5,464.6 330.2,466 
		326,467.3 321.7,468.7 317.5,470.1 313.2,471.5 309,472.9 304.7,474.3 300.5,475.7 296.2,477.1 292,478.5 287.7,479.9 283.5,481.3 
		279.2,482.6 275,484 270.7,485.4 266.5,486.8 262.2,488.2 258,489.6 253.7,491 249.5,492.4 245.2,493.8 240.9,495.2 236.7,496.6 
		232.4,498 228.2,499.4 223.9,500.7 219.7,502.1 215.4,503.5 211.2,504.9 206.9,506.3 202.7,507.7 198.4,509.1 194.2,510.5 
		189.9,511.9 185.7,513.3 181.4,514.7 177.2,516 172.9,517.5 	"/>
	<polyline class="st0" points="593.8,379.6 589,376.9 584.2,374.1 579.5,371.4 574.7,368.7 569.9,365.9 565.1,363.2 560.4,360.4 
		555.6,357.7 550.8,354.9 546,352.2 541.3,349.4 536.5,346.7 531.7,343.9 527,341.2 522.2,338.4 517.4,335.7 512.6,332.9 
		507.9,330.2 503.1,327.4 498.3,324.7 493.5,321.9 488.8,319.2 484,316.4 479.2,313.7 474.5,310.9 469.7,308.2 464.9,305.4 
		460.1,302.7 455.4,299.9 450.6,297.2 445.8,294.4 441,291.7 436.3,288.9 431.5,286.2 426.7,283.4 422,280.7 417.2,277.9 
		412.4,275.2 407.6,272.4 402.9,269.7 398.1,267 393.3,264.2 388.5,261.5 383.8,258.7 379,256 374.2,253.2 369.5,250.5 364.7,247.7 
		359.9,245 355.1,242.2 350.4,239.5 345.6,236.7 340.8,234 336,231.2 331.3,228.5 326.5,225.7 321.7,223 317,220.2 312.2,217.5 
		307.4,214.7 302.6,212 297.9,209.2 293.1,206.5 288.3,203.7 283.5,201 278.8,198.2 274,195.5 269.2,192.7 264.5,190 259.7,187.2 
		254.9,184.5 250.1,181.7 245.4,179 240.6,176.2 235.8,173.5 231,170.7 226.3,168 221.5,165.2 216.7,162.5 211.9,159.7 207.2,157 
		202.4,154.2 197.6,151.5 192.9,148.7 188.1,146 183.3,143.2 178.5,140.5 173.8,137.8 169,135 164.2,132.3 159.4,129.5 154.7,126.8 
		149.9,124 145.1,121.3 140.4,118.5 135.6,115.8 130.8,113 126,110.3 121.3,107.5 	"/>
	<polyline class="st4" points="419.3,542.2 418.6,537.1 418,531.9 417.3,526.7 416.6,521.6 416,516.4 415.3,511.2 414.7,506.1 
		414,500.9 413.4,495.8 412.7,490.6 412.1,485.4 411.4,480.3 410.8,475.1 410.1,469.9 409.5,464.8 408.8,459.6 408.2,454.4 
		407.5,449.3 406.9,444.1 406.2,439 405.6,433.8 404.9,428.6 404.3,423.5 403.6,418.3 403,413.1 402.3,408 401.7,402.8 401,397.6 
		400.4,392.5 399.7,387.3 399.1,382.1 398.4,377 397.8,371.8 397.1,366.7 396.5,361.5 395.8,356.3 395.2,351.2 394.5,346 
		393.9,340.9 393.2,335.7 392.6,330.5 391.9,325.4 391.3,320.2 390.6,315 390,309.9 389.3,304.7 388.6,299.5 388,294.4 387.4,289.2 
		386.7,284 386,278.9 385.4,273.7 384.8,268.6 384.1,263.4 383.5,258.2 382.8,253.1 382.1,247.9 381.5,242.7 380.8,237.6 
		380.2,232.4 379.5,227.3 378.9,222.1 378.2,216.9 377.6,211.8 376.9,206.6 376.3,201.4 375.6,196.3 375,191.1 374.3,185.9 
		373.7,180.8 373,175.6 372.4,170.5 371.7,165.3 371.1,160.1 370.4,155 369.8,149.8 369.1,144.6 368.5,139.5 367.8,134.3 
		367.2,129.1 366.5,124 365.9,118.8 365.2,113.6 364.6,108.5 363.9,103.3 363.3,98.2 362.6,93 362,87.8 361.3,82.7 360.7,77.5 
		360,72.4 359.4,67.2 358.7,62 358.1,56.9 357.4,51.7 356.8,46.5 356.1,41.4 355.5,36.2 354.8,31 	"/>
	<polyline class="st4" points="419.3,542.2 415.4,540 411.6,537.8 407.8,535.6 403.9,533.4 400.1,531.2 396.3,529 392.5,526.8 
		388.6,524.6 384.8,522.4 381,520.2 377.1,518 373.3,515.8 369.5,513.6 365.7,511.4 361.8,509.1 358,507 354.2,504.8 350.4,502.5 
		346.5,500.3 342.7,498.1 338.9,495.9 335,493.7 331.2,491.5 327.4,489.3 323.6,487.1 319.7,484.9 315.9,482.7 312.1,480.5 
		308.3,478.3 304.4,476.1 300.6,473.9 296.8,471.7 292.9,469.5 289.1,467.3 285.3,465.1 281.5,462.9 277.6,460.7 273.8,458.5 
		270,456.3 266.1,454 262.3,451.8 258.5,449.6 254.7,447.4 250.8,445.2 247,443 243.2,440.8 239.4,438.6 235.5,436.4 231.7,434.2 
		227.9,432 224,429.8 220.2,427.6 216.4,425.4 212.6,423.2 208.7,421 204.9,418.8 201.1,416.6 197.3,414.4 193.4,412.2 189.6,410 
		185.8,407.8 181.9,405.5 178.1,403.3 174.3,401.1 170.5,398.9 166.6,396.7 162.8,394.5 159,392.3 155.1,390.1 151.3,387.9 
		147.5,385.7 143.7,383.5 139.8,381.3 136,379.1 132.2,376.9 128.4,374.7 124.5,372.5 120.7,370.3 116.9,368.1 113.1,365.9 
		109.2,363.7 105.4,361.5 101.6,359.3 97.7,357 93.9,354.8 90.1,352.6 86.3,350.4 82.4,348.2 78.6,346 74.8,343.8 70.9,341.6 
		67.1,339.4 63.3,337.2 59.5,335 55.6,332.8 51.8,330.6 48,328.4 44.2,326.2 40.3,324 	"/>
	<polyline class="st5" points="419.3,542.2 420.7,538.3 422.2,534.3 423.7,530.4 425.1,526.5 426.6,522.5 428.1,518.6 429.6,514.6 
		431,510.7 432.5,506.8 434,502.8 435.5,498.9 436.9,494.9 438.4,491 439.9,487.1 441.4,483.1 442.8,479.2 444.3,475.2 445.8,471.3 
		447.2,467.4 448.7,463.4 450.2,459.5 451.7,455.5 453.1,451.6 454.6,447.7 456.1,443.7 457.5,439.8 459,435.8 460.5,431.9 462,428 
		463.4,424 464.9,420.1 466.4,416.1 467.9,412.2 469.3,408.3 470.8,404.3 472.3,400.4 473.8,396.4 475.2,392.5 476.7,388.6 
		478.2,384.6 479.6,380.7 481.1,376.7 482.6,372.8 484.1,368.9 485.5,364.9 487,361 488.5,357 490,353.1 491.4,349.2 492.9,345.2 
		494.4,341.3 495.9,337.3 497.3,333.4 498.8,329.5 500.3,325.5 501.8,321.6 503.2,317.6 504.7,313.7 506.2,309.8 507.6,305.8 
		509.1,301.9 510.6,297.9 512.1,294 513.5,290.1 515,286.1 516.5,282.2 518,278.2 519.4,274.3 520.9,270.4 522.4,266.4 523.8,262.5 
		525.3,258.5 526.8,254.6 528.3,250.7 529.7,246.7 531.2,242.8 532.7,238.8 534.2,234.9 535.6,231 537.1,227 538.6,223.1 540,219.1 
		541.5,215.2 543,211.3 544.5,207.3 545.9,203.4 547.4,199.4 548.9,195.5 550.4,191.5 551.8,187.6 553.3,183.7 554.8,179.7 
		556.3,175.8 557.7,171.9 559.2,167.9 560.7,164 562.2,160 563.6,156.1 565.1,152.1 	"/>
	<polyline class="st6" points="419.3,542.2 416.8,542 414.3,541.7 411.8,541.5 409.3,541.2 406.8,541 404.3,540.7 401.8,540.5 
		399.3,540.2 396.9,540 394.4,539.7 391.9,539.5 389.4,539.2 386.9,539 384.4,538.7 381.9,538.5 379.4,538.2 377,538 374.5,537.7 
		372,537.5 369.5,537.2 367,537 364.5,536.7 362,536.5 359.5,536.2 357,536 354.6,535.7 352.1,535.5 349.6,535.2 347.1,535 
		344.6,534.7 342.1,534.5 339.6,534.2 337.1,534 334.7,533.7 332.2,533.5 329.7,533.2 327.2,533 324.7,532.7 322.2,532.5 
		319.7,532.2 317.2,532 314.8,531.7 312.3,531.5 309.8,531.2 307.3,531 304.8,530.7 302.3,530.5 299.8,530.2 297.3,530 294.9,529.7 
		292.4,529.5 289.9,529.2 287.4,529 284.9,528.7 282.4,528.5 279.9,528.2 277.4,528 275,527.7 272.5,527.5 270,527.2 267.5,527 
		265,526.7 262.5,526.5 260,526.2 257.5,526 255,525.7 252.6,525.5 250.1,525.2 247.6,525 245.1,524.7 242.6,524.5 240.1,524.2 
		237.6,524 235.1,523.7 232.6,523.5 230.2,523.2 227.7,523 225.2,522.7 222.7,522.5 220.2,522.2 217.7,522 215.2,521.7 212.8,521.5 
		210.3,521.2 207.8,521 205.3,520.7 202.8,520.5 200.3,520.2 197.8,520 195.3,519.7 192.8,519.5 190.4,519.2 187.9,519 185.4,518.7 
		182.9,518.5 180.4,518.2 177.9,518 175.4,517.7 172.9,517.5 	"/>
	<polyline class="st7" points="419.3,542.2 416.2,537.8 413.2,533.4 410.2,529 407.2,524.7 404.2,520.3 401.2,515.9 398.2,511.5 
		395.2,507.1 392.2,502.7 389.1,498.3 386.1,493.9 383.1,489.5 380.1,485.1 377.1,480.8 374.1,476.4 371.1,472 368.1,467.6 
		365.1,463.2 362.1,458.8 359,454.4 356,450 353,445.6 350,441.2 347,436.8 344,432.5 341,428 338,423.7 335,419.3 332,414.9 
		329,410.5 325.9,406.1 322.9,401.7 319.9,397.3 316.9,392.9 313.9,388.5 310.9,384.1 307.9,379.8 304.9,375.4 301.9,371 
		298.9,366.6 295.8,362.2 292.8,357.8 289.8,353.4 286.8,349 283.8,344.6 280.8,340.2 277.8,335.8 274.8,331.5 271.8,327.1 
		268.8,322.7 265.7,318.3 262.7,313.9 259.7,309.5 256.7,305.1 253.7,300.7 250.7,296.3 247.7,291.9 244.7,287.5 241.7,283.1 
		238.6,278.8 235.6,274.4 232.6,270 229.6,265.6 226.6,261.2 223.6,256.8 220.6,252.4 217.6,248 214.6,243.6 211.6,239.2 
		208.6,234.9 205.5,230.5 202.5,226.1 199.5,221.7 196.5,217.3 193.5,212.9 190.5,208.5 187.5,204.1 184.5,199.7 181.5,195.3 
		178.4,190.9 175.4,186.5 172.4,182.2 169.4,177.8 166.4,173.4 163.4,169 160.4,164.6 157.4,160.2 154.4,155.8 151.4,151.4 
		148.4,147 145.3,142.6 142.3,138.3 139.3,133.9 136.3,129.5 133.3,125.1 130.3,120.7 127.3,116.3 124.3,111.9 121.3,107.5 	"/>
	<polyline class="st8" points="354.8,31 351.6,34 348.5,37 345.3,39.9 342.1,42.9 338.9,45.8 335.8,48.8 332.6,51.8 329.4,54.7 
		326.2,57.7 323,60.6 319.9,63.6 316.7,66.5 313.5,69.5 310.3,72.5 307.2,75.4 304,78.4 300.8,81.3 297.6,84.3 294.5,87.3 
		291.3,90.2 288.1,93.2 284.9,96.1 281.7,99.1 278.6,102 275.4,105 272.2,108 269,110.9 265.9,113.9 262.7,116.9 259.5,119.8 
		256.3,122.8 253.2,125.7 250,128.7 246.8,131.6 243.6,134.6 240.4,137.6 237.3,140.5 234.1,143.5 230.9,146.4 227.7,149.4 
		224.6,152.4 221.4,155.3 218.2,158.3 215,161.2 211.9,164.2 208.7,167.1 205.5,170.1 202.3,173.1 199.1,176 196,179 192.8,182 
		189.6,184.9 186.4,187.9 183.3,190.8 180.1,193.8 176.9,196.7 173.7,199.7 170.6,202.7 167.4,205.6 164.2,208.6 161,211.5 
		157.9,214.5 154.7,217.5 151.5,220.4 148.3,223.4 145.1,226.3 142,229.3 138.8,232.3 135.6,235.2 132.4,238.2 129.3,241.1 
		126.1,244.1 122.9,247 119.7,250 116.6,253 113.4,255.9 110.2,258.9 107,261.8 103.9,264.8 100.7,267.8 97.5,270.7 94.3,273.7 
		91.2,276.6 88,279.6 84.8,282.5 81.6,285.5 78.4,288.5 75.3,291.4 72.1,294.4 68.9,297.4 65.7,300.3 62.6,303.3 59.4,306.2 
		56.2,309.2 53,312.1 49.8,315.1 46.7,318.1 43.5,321 40.3,324 	"/>
	<polyline class="st9" points="354.8,31 356.9,32.3 359,33.5 361.2,34.7 363.3,35.9 365.4,37.2 367.5,38.4 369.7,39.6 371.8,40.8 
		373.9,42 376,43.3 378.2,44.5 380.3,45.7 382.4,46.9 384.5,48.2 386.7,49.4 388.8,50.6 390.9,51.8 393,53.1 395.2,54.3 397.3,55.5 
		399.4,56.7 401.5,58 403.7,59.2 405.8,60.4 407.9,61.6 410,62.8 412.2,64.1 414.3,65.3 416.4,66.5 418.5,67.7 420.6,69 422.8,70.2 
		424.9,71.4 427,72.6 429.1,73.9 431.3,75.1 433.4,76.3 435.5,77.5 437.6,78.8 439.8,80 441.9,81.2 444,82.4 446.1,83.6 448.3,84.9 
		450.4,86.1 452.5,87.3 454.6,88.5 456.8,89.8 458.9,91 461,92.2 463.1,93.4 465.3,94.6 467.4,95.9 469.5,97.1 471.6,98.3 
		473.8,99.5 475.9,100.8 478,102 480.1,103.2 482.3,104.4 484.4,105.7 486.5,106.9 488.6,108.1 490.8,109.3 492.9,110.6 495,111.8 
		497.1,113 499.3,114.2 501.4,115.5 503.5,116.7 505.6,117.9 507.7,119.1 509.9,120.4 512,121.6 514.1,122.8 516.2,124 518.4,125.2 
		520.5,126.5 522.6,127.7 524.7,128.9 526.9,130.1 529,131.4 531.1,132.6 533.2,133.8 535.4,135 537.5,136.3 539.6,137.5 
		541.7,138.7 543.8,139.9 546,141.1 548.1,142.4 550.2,143.6 552.3,144.8 554.5,146 556.6,147.3 558.7,148.5 560.8,149.7 563,150.9 
		565.1,152.1 	"/>
	<polyline class="st10" points="354.8,31 353,36 351.1,40.9 349.3,45.8 347.5,50.7 345.6,55.6 343.8,60.5 342,65.4 340.1,70.3 
		338.3,75.3 336.4,80.2 334.6,85.1 332.8,90 330.9,94.9 329.1,99.8 327.3,104.7 325.4,109.6 323.6,114.6 321.7,119.5 319.9,124.4 
		318.1,129.3 316.2,134.2 314.4,139.1 312.5,144 310.7,149 308.9,153.9 307,158.8 305.2,163.7 303.4,168.6 301.5,173.5 299.7,178.4 
		297.9,183.4 296,188.3 294.2,193.2 292.4,198.1 290.5,203 288.7,207.9 286.8,212.8 285,217.7 283.2,222.6 281.3,227.6 279.5,232.5 
		277.6,237.4 275.8,242.3 274,247.2 272.1,252.1 270.3,257 268.5,262 266.6,266.9 264.8,271.8 263,276.7 261.1,281.6 259.3,286.5 
		257.4,291.4 255.6,296.4 253.8,301.3 251.9,306.2 250.1,311.1 248.3,316 246.4,320.9 244.6,325.8 242.8,330.7 240.9,335.7 
		239.1,340.6 237.2,345.5 235.4,350.4 233.6,355.3 231.7,360.2 229.9,365.1 228.1,370 226.2,375 224.4,379.9 222.5,384.8 
		220.7,389.7 218.9,394.6 217,399.5 215.2,404.4 213.4,409.4 211.5,414.3 209.7,419.2 207.8,424.1 206,429 204.2,433.9 202.3,438.8 
		200.5,443.8 198.7,448.7 196.8,453.6 195,458.5 193.1,463.4 191.3,468.3 189.5,473.2 187.6,478.1 185.8,483 184,488 182.1,492.9 
		180.3,497.8 178.4,502.7 176.6,507.6 174.8,512.5 172.9,517.5 	"/>
	<polyline class="st7" points="354.8,31 352.5,31.8 350.1,32.6 347.7,33.4 345.4,34.1 343,34.9 340.6,35.7 338.3,36.5 335.9,37.2 
		333.6,38 331.2,38.8 328.9,39.5 326.5,40.3 324.1,41.1 321.8,41.8 319.4,42.6 317.1,43.4 314.7,44.2 312.3,44.9 310,45.7 
		307.6,46.5 305.3,47.3 302.9,48 300.5,48.8 298.2,49.6 295.8,50.3 293.5,51.1 291.1,51.9 288.8,52.7 286.4,53.4 284,54.2 281.7,55 
		279.3,55.8 277,56.5 274.6,57.3 272.2,58.1 269.9,58.8 267.5,59.6 265.2,60.4 262.8,61.2 260.4,61.9 258.1,62.7 255.7,63.5 
		253.4,64.3 251,65 248.6,65.8 246.3,66.6 243.9,67.3 241.6,68.1 239.2,68.9 236.9,69.7 234.5,70.4 232.1,71.2 229.8,72 227.4,72.8 
		225.1,73.5 222.7,74.3 220.3,75.1 218,75.8 215.6,76.6 213.3,77.4 210.9,78.2 208.6,78.9 206.2,79.7 203.8,80.5 201.5,81.3 
		199.1,82 196.8,82.8 194.4,83.6 192,84.3 189.7,85.1 187.3,85.9 185,86.6 182.6,87.4 180.2,88.2 177.9,89 175.5,89.7 173.2,90.5 
		170.8,91.3 168.4,92.1 166.1,92.8 163.7,93.6 161.4,94.4 159,95.1 156.6,95.9 154.3,96.7 151.9,97.5 149.6,98.2 147.2,99 
		144.9,99.8 142.5,100.6 140.1,101.3 137.8,102.1 135.4,102.9 133.1,103.6 130.7,104.4 128.3,105.2 126,106 123.6,106.7 
		121.3,107.5 	"/>
	<polyline class="st11" points="40.3,324 45.6,322.2 50.9,320.5 56.2,318.8 61.5,317 66.8,315.3 72.1,313.6 77.4,311.8 82.7,310.1 
		88,308.4 93.3,306.6 98.6,304.9 103.9,303.1 109.2,301.4 114.5,299.7 119.8,298 125.1,296.2 130.4,294.5 135.7,292.7 141,291 
		146.3,289.3 151.6,287.5 156.9,285.8 162.2,284.1 167.5,282.3 172.8,280.6 178.1,278.9 183.4,277.1 188.7,275.4 194,273.6 
		199.3,271.9 204.6,270.2 209.9,268.4 215.3,266.7 220.6,265 225.9,263.2 231.1,261.5 236.4,259.8 241.8,258 247.1,256.3 
		252.4,254.6 257.6,252.8 263,251.1 268.3,249.4 273.5,247.6 278.9,245.9 284.2,244.1 289.5,242.4 294.8,240.7 300.1,238.9 
		305.4,237.2 310.7,235.5 316,233.7 321.3,232 326.6,230.3 331.9,228.5 337.2,226.8 342.5,225 347.8,223.3 353.1,221.6 358.4,219.8 
		363.7,218.1 369,216.4 374.3,214.6 379.6,212.9 384.9,211.2 390.2,209.4 395.5,207.7 400.8,206 406.1,204.2 411.4,202.5 
		416.7,200.8 422,199 427.3,197.3 432.6,195.5 437.9,193.8 443.2,192.1 448.5,190.3 453.8,188.6 459.1,186.9 464.4,185.1 
		469.7,183.4 475,181.7 480.3,179.9 485.6,178.2 490.9,176.5 496.2,174.7 501.5,173 506.8,171.3 512.1,169.5 517.4,167.8 522.7,166 
		528,164.3 533.3,162.6 538.6,160.8 543.9,159.1 549.2,157.4 554.5,155.6 559.8,153.9 565.1,152.1 	"/>
	<polyline class="st12" points="40.3,324 41.7,325.9 43,327.9 44.3,329.8 45.7,331.8 47,333.8 48.4,335.7 49.7,337.7 51,339.6 
		52.4,341.6 53.7,343.5 55.1,345.5 56.4,347.4 57.7,349.4 59.1,351.3 60.4,353.3 61.8,355.3 63.1,357.2 64.4,359.2 65.8,361.1 
		67.1,363.1 68.4,365 69.8,367 71.1,368.9 72.5,370.9 73.8,372.8 75.2,374.8 76.5,376.7 77.8,378.7 79.2,380.6 80.5,382.6 
		81.8,384.6 83.2,386.5 84.5,388.5 85.9,390.4 87.2,392.4 88.6,394.3 89.9,396.3 91.2,398.2 92.6,400.2 93.9,402.1 95.3,404.1 
		96.6,406.1 97.9,408 99.3,410 100.6,411.9 101.9,413.9 103.3,415.8 104.6,417.8 106,419.7 107.3,421.7 108.6,423.6 110,425.6 
		111.3,427.5 112.7,429.5 114,431.5 115.3,433.4 116.7,435.4 118,437.3 119.4,439.3 120.7,441.2 122,443.2 123.4,445.1 124.7,447.1 
		126.1,449 127.4,451 128.7,453 130.1,454.9 131.4,456.9 132.8,458.8 134.1,460.8 135.4,462.7 136.8,464.7 138.1,466.6 139.4,468.6 
		140.8,470.5 142.1,472.5 143.5,474.5 144.8,476.4 146.1,478.4 147.5,480.3 148.8,482.3 150.2,484.2 151.5,486.2 152.9,488.1 
		154.2,490.1 155.5,492 156.9,494 158.2,496 159.5,497.9 160.9,499.9 162.2,501.8 163.6,503.8 164.9,505.7 166.2,507.7 167.6,509.6 
		168.9,511.6 170.3,513.5 171.6,515.5 172.9,517.5 	"/>
	<polyline class="st13" points="40.3,324 41.1,321.8 42,319.6 42.8,317.4 43.6,315.2 44.4,313 45.2,310.9 46,308.7 46.9,306.5 
		47.7,304.3 48.5,302.1 49.3,299.9 50.1,297.7 51,295.6 51.8,293.4 52.6,291.2 53.4,289 54.2,286.8 55,284.6 55.9,282.4 56.7,280.3 
		57.5,278.1 58.3,275.9 59.1,273.7 60,271.5 60.8,269.3 61.6,267.1 62.4,264.9 63.2,262.8 64,260.6 64.8,258.4 65.7,256.2 66.5,254 
		67.3,251.8 68.1,249.6 68.9,247.5 69.8,245.3 70.6,243.1 71.4,240.9 72.2,238.7 73,236.5 73.8,234.3 74.7,232.1 75.5,230 
		76.3,227.8 77.1,225.6 77.9,223.4 78.8,221.2 79.6,219 80.4,216.8 81.2,214.6 82,212.5 82.8,210.3 83.7,208.1 84.5,205.9 
		85.3,203.7 86.1,201.5 86.9,199.4 87.7,197.2 88.6,195 89.4,192.8 90.2,190.6 91,188.4 91.8,186.2 92.7,184 93.5,181.9 94.3,179.7 
		95.1,177.5 95.9,175.3 96.7,173.1 97.6,170.9 98.4,168.7 99.2,166.5 100,164.4 100.8,162.2 101.6,160 102.5,157.8 103.3,155.6 
		104.1,153.4 104.9,151.2 105.7,149 106.6,146.9 107.4,144.7 108.2,142.5 109,140.3 109.8,138.1 110.6,135.9 111.4,133.8 
		112.3,131.6 113.1,129.4 113.9,127.2 114.7,125 115.5,122.8 116.4,120.6 117.2,118.4 118,116.3 118.8,114.1 119.6,111.9 
		120.4,109.7 121.3,107.5 	"/>
	<polyline class="st14" points="565.1,152.1 561.1,155.8 557.2,159.5 553.2,163.2 549.3,166.9 545.3,170.6 541.3,174.3 537.4,178 
		533.4,181.7 529.4,185.4 525.5,189 521.5,192.7 517.6,196.4 513.6,200.1 509.6,203.8 505.7,207.5 501.7,211.2 497.8,214.9 
		493.8,218.6 489.8,222.3 485.9,226 481.9,229.6 478,233.3 474,237 470,240.7 466.1,244.4 462.1,248.1 458.1,251.8 454.2,255.5 
		450.2,259.2 446.3,262.9 442.3,266.5 438.3,270.2 434.4,273.9 430.4,277.6 426.5,281.3 422.5,285 418.5,288.7 414.6,292.4 
		410.6,296.1 406.6,299.8 402.7,303.4 398.7,307.1 394.8,310.8 390.8,314.5 386.8,318.2 382.9,321.9 378.9,325.6 375,329.3 371,333 
		367,336.6 363.1,340.3 359.1,344 355.1,347.7 351.2,351.4 347.2,355.1 343.3,358.8 339.3,362.5 335.4,366.2 331.4,369.9 
		327.4,373.5 323.5,377.2 319.5,380.9 315.5,384.6 311.6,388.3 307.6,392 303.7,395.7 299.7,399.4 295.7,403.1 291.8,406.8 
		287.8,410.4 283.9,414.1 279.9,417.8 275.9,421.5 272,425.2 268,428.9 264,432.6 260.1,436.3 256.1,440 252.2,443.6 248.2,447.3 
		244.2,451 240.3,454.7 236.3,458.4 232.4,462.1 228.4,465.8 224.4,469.5 220.5,473.2 216.5,476.9 212.6,480.5 208.6,484.2 
		204.6,487.9 200.7,491.6 196.7,495.3 192.8,499 188.8,502.7 184.8,506.4 180.9,510.1 176.9,513.8 172.9,517.5 	"/>
	<polyline class="st15" points="565.1,152.1 560.6,151.7 556.1,151.3 551.6,150.8 547.2,150.4 542.7,149.9 538.2,149.5 533.7,149 
		529.2,148.5 524.8,148.1 520.3,147.6 515.8,147.2 511.3,146.7 506.8,146.3 502.3,145.8 497.9,145.4 493.4,144.9 488.9,144.5 
		484.4,144 479.9,143.6 475.4,143.1 471,142.7 466.5,142.2 462,141.8 457.5,141.3 453,140.9 448.5,140.4 444,140 439.6,139.5 
		435.1,139.1 430.6,138.6 426.1,138.2 421.6,137.7 417.1,137.3 412.7,136.8 408.2,136.4 403.7,135.9 399.2,135.5 394.7,135 
		390.3,134.6 385.8,134.1 381.3,133.7 376.8,133.2 372.3,132.8 367.8,132.3 363.4,131.9 358.9,131.4 354.4,131 349.9,130.5 
		345.4,130.1 340.9,129.6 336.5,129.1 332,128.7 327.5,128.3 323,127.8 318.5,127.4 314,126.9 309.5,126.5 305.1,126 300.6,125.5 
		296.1,125.1 291.6,124.6 287.1,124.2 282.7,123.7 278.2,123.3 273.7,122.8 269.2,122.4 264.7,121.9 260.2,121.5 255.8,121 
		251.3,120.6 246.8,120.1 242.3,119.7 237.8,119.2 233.3,118.8 228.9,118.3 224.4,117.9 219.9,117.4 215.4,117 210.9,116.5 
		206.4,116.1 202,115.6 197.5,115.2 193,114.7 188.5,114.3 184,113.8 179.5,113.4 175.1,112.9 170.6,112.5 166.1,112 161.6,111.6 
		157.1,111.1 152.6,110.7 148.2,110.2 143.7,109.8 139.2,109.3 134.7,108.9 130.2,108.4 125.7,108 121.3,107.5 	"/>
	<polyline class="st3" points="172.9,517.5 172.4,513.3 171.9,509.2 171.4,505 170.9,500.9 170.3,496.7 169.8,492.6 169.3,488.5 
		168.8,484.3 168.2,480.2 167.7,476 167.2,471.9 166.7,467.8 166.1,463.6 165.6,459.5 165.1,455.3 164.6,451.2 164.1,447 
		163.5,442.9 163,438.8 162.5,434.6 162,430.5 161.5,426.4 160.9,422.2 160.4,418.1 159.9,413.9 159.4,409.8 158.9,405.6 
		158.3,401.5 157.8,397.4 157.3,393.2 156.8,389.1 156.2,384.9 155.7,380.8 155.2,376.7 154.7,372.5 154.1,368.4 153.6,364.2 
		153.1,360.1 152.6,356 152.1,351.8 151.5,347.7 151,343.5 150.5,339.4 150,335.3 149.4,331.1 148.9,327 148.4,322.8 147.9,318.7 
		147.4,314.5 146.8,310.4 146.3,306.3 145.8,302.1 145.3,298 144.8,293.8 144.2,289.7 143.7,285.6 143.2,281.4 142.7,277.3 
		142.1,273.1 141.6,269 141.1,264.9 140.6,260.7 140.1,256.6 139.5,252.4 139,248.3 138.5,244.1 138,240 137.4,235.9 136.9,231.7 
		136.4,227.6 135.9,223.5 135.4,219.3 134.8,215.2 134.3,211 133.8,206.9 133.3,202.8 132.8,198.6 132.2,194.5 131.7,190.3 
		131.2,186.2 130.7,182 130.1,177.9 129.6,173.8 129.1,169.6 128.6,165.5 128.1,161.3 127.5,157.2 127,153.1 126.5,148.9 126,144.8 
		125.4,140.6 124.9,136.5 124.4,132.4 123.9,128.2 123.3,124.1 122.8,119.9 122.3,115.8 121.8,111.6 121.3,107.5 	"/>
	<path class="st16" d="M576.1,379.6c0-9.7,8-17.6,17.7-17.6c9.7,0,17.6,7.9,17.6,17.6s-7.9,17.6-17.6,17.6
		C584.1,397.3,576.1,389.4,576.1,379.6"/>
	<path class="st17" d="M576.1,379.6c0-9.7,8-17.6,17.7-17.6c9.7,0,17.6,7.9,17.6,17.6s-7.9,17.6-17.6,17.6
		C584.1,397.3,576.1,389.4,576.1,379.6"/>
	<path class="st18" d="M398.5,542.2c0-11.4,9.4-20.8,20.8-20.8c11.4,0,20.8,9.3,20.8,20.8c0,11.4-9.3,20.8-20.8,20.8
		C407.8,563,398.5,553.7,398.5,542.2"/>
	<path class="st17" d="M398.5,542.2c0-11.4,9.4-20.8,20.8-20.8c11.4,0,20.8,9.3,20.8,20.8c0,11.4-9.3,20.8-20.8,20.8
		C407.8,563,398.5,553.7,398.5,542.2"/>
	<path class="st19" d="M336,31c0-10.3,8.5-18.8,18.8-18.8c10.3,0,18.8,8.5,18.8,18.8c0,10.3-8.5,18.8-18.8,18.8
		C344.5,49.8,336,41.4,336,31"/>
	<path class="st17" d="M336,31c0-10.3,8.5-18.8,18.8-18.8c10.3,0,18.8,8.5,18.8,18.8c0,10.3-8.5,18.8-18.8,18.8
		C344.5,49.8,336,41.4,336,31"/>
	<path class="st20" d="M18.6,324c0-11.9,9.8-21.7,21.7-21.7C52.3,302.3,62,312,62,324c0,11.9-9.8,21.7-21.7,21.7
		C28.4,345.7,18.6,335.9,18.6,324"/>
	<path class="st17" d="M18.6,324c0-11.9,9.8-21.7,21.7-21.7C52.3,302.3,62,312,62,324c0,11.9-9.8,21.7-21.7,21.7
		C28.4,345.7,18.6,335.9,18.6,324"/>
	<path class="st21" d="M546.2,152.1c0-10.4,8.5-18.9,18.9-18.9c10.4,0,18.8,8.5,18.8,18.9c0,10.4-8.5,18.9-18.8,18.9
		C554.7,171,546.2,162.5,546.2,152.1"/>
	<path class="st17" d="M546.2,152.1c0-10.4,8.5-18.9,18.9-18.9c10.4,0,18.8,8.5,18.8,18.9c0,10.4-8.5,18.9-18.8,18.9
		C554.7,171,546.2,162.5,546.2,152.1"/>
	<path class="st22" d="M155.2,517.5c0-9.8,8-17.7,17.7-17.7c9.8,0,17.7,8,17.7,17.7c0,9.8-8,17.7-17.7,17.7
		C163.2,535.2,155.2,527.2,155.2,517.5"/>
	<path class="st17" d="M155.2,517.5c0-9.8,8-17.7,17.7-17.7c9.8,0,17.7,8,17.7,17.7c0,9.8-8,17.7-17.7,17.7
		C163.2,535.2,155.2,527.2,155.2,517.5"/>
	<path class="st23" d="M104.9,107.5c0-9,7.4-16.4,16.4-16.4s16.4,7.4,16.4,16.4s-7.4,16.4-16.4,16.4S104.9,116.5,104.9,107.5"/>
	<path class="st17" d="M104.9,107.5c0-9,7.4-16.4,16.4-16.4s16.4,7.4,16.4,16.4s-7.4,16.4-16.4,16.4S104.9,116.5,104.9,107.5"/>
	<g class="st24">
		<path d="M595.4,385.8h-1.5v-9.5c-0.4,0.3-0.8,0.7-1.4,1c-0.6,0.3-1.1,0.6-1.6,0.8v-1.4c0.8-0.4,1.6-0.9,2.2-1.4
			c0.6-0.6,1.1-1.1,1.3-1.6h1V385.8z"/>
	</g>
	<g class="st24">
		<path d="M423.1,546.9v1.4h-8c0-0.4,0-0.7,0.2-1c0.2-0.5,0.5-1.1,1-1.6s1.1-1.1,2-1.8c1.3-1.1,2.2-1.9,2.7-2.6s0.7-1.2,0.7-1.8
			c0-0.6-0.2-1.1-0.6-1.5c-0.4-0.4-1-0.6-1.7-0.6c-0.7,0-1.3,0.2-1.7,0.6s-0.7,1-0.7,1.8l-1.5-0.2c0.1-1.1,0.5-2,1.2-2.6
			c0.7-0.6,1.6-0.9,2.8-0.9c1.2,0,2.1,0.3,2.8,1c0.7,0.6,1,1.5,1,2.4c0,0.5-0.1,1-0.3,1.4s-0.5,1-1,1.5c-0.5,0.5-1.2,1.2-2.3,2.1
			c-0.9,0.8-1.5,1.3-1.7,1.5s-0.5,0.5-0.6,0.8H423.1z"/>
	</g>
	<g class="st24">
		<path d="M350.8,33.9l1.5-0.2c0.2,0.8,0.5,1.5,0.9,1.8c0.4,0.4,0.9,0.6,1.5,0.6c0.7,0,1.3-0.2,1.8-0.7c0.5-0.5,0.7-1.1,0.7-1.8
			c0-0.7-0.2-1.3-0.7-1.7c-0.4-0.4-1-0.7-1.7-0.7c-0.3,0-0.6,0.1-1.1,0.2l0.2-1.3c0.1,0,0.2,0,0.2,0c0.6,0,1.2-0.2,1.7-0.5
			s0.8-0.8,0.8-1.5c0-0.5-0.2-1-0.6-1.4s-0.8-0.5-1.4-0.5c-0.6,0-1.1,0.2-1.5,0.5s-0.6,0.9-0.7,1.6l-1.5-0.3c0.2-1,0.6-1.8,1.2-2.3
			c0.6-0.6,1.5-0.8,2.4-0.8c0.7,0,1.3,0.1,1.8,0.4c0.6,0.3,1,0.7,1.3,1.2c0.3,0.5,0.4,1,0.4,1.6c0,0.5-0.1,1-0.4,1.4s-0.7,0.8-1.3,1
			c0.7,0.2,1.3,0.5,1.7,1c0.4,0.5,0.6,1.2,0.6,2c0,1.1-0.4,2-1.2,2.7c-0.8,0.7-1.8,1.1-2.9,1.1c-1.1,0-2-0.3-2.7-1
			C351.3,35.8,350.9,34.9,350.8,33.9z"/>
	</g>
	<g class="st24">
		<path d="M41.1,330.1v-2.9h-5.3v-1.4l5.6-7.9h1.2v7.9h1.6v1.4h-1.6v2.9H41.1z M41.1,325.8v-5.5l-3.8,5.5H41.1z"/>
	</g>
	<g class="st24">
		<path d="M561.1,155.1l1.6-0.1c0.1,0.8,0.4,1.3,0.8,1.7c0.4,0.4,0.9,0.6,1.5,0.6c0.7,0,1.3-0.3,1.8-0.8s0.7-1.3,0.7-2.2
			c0-0.9-0.2-1.5-0.7-2s-1.1-0.7-1.9-0.7c-0.5,0-0.9,0.1-1.3,0.3c-0.4,0.2-0.7,0.5-0.9,0.9l-1.4-0.2l1.2-6.3h6.1v1.4h-4.9l-0.7,3.3
			c0.7-0.5,1.5-0.8,2.3-0.8c1.1,0,2,0.4,2.7,1.1s1.1,1.7,1.1,2.8c0,1.1-0.3,2.1-1,2.9c-0.8,1-1.8,1.5-3.2,1.5c-1.1,0-2-0.3-2.7-0.9
			S561.2,156.1,561.1,155.1z"/>
	</g>
	<g class="st24">
		<path d="M176.7,514.4l-1.5,0.1c-0.1-0.6-0.3-1-0.6-1.3c-0.4-0.4-0.9-0.6-1.5-0.6c-0.5,0-0.9,0.1-1.3,0.4c-0.5,0.3-0.8,0.8-1.1,1.5
			c-0.3,0.7-0.4,1.6-0.4,2.8c0.4-0.5,0.8-1,1.3-1.2s1.1-0.4,1.6-0.4c1,0,1.8,0.4,2.5,1.1c0.7,0.7,1.1,1.7,1.1,2.8
			c0,0.8-0.2,1.5-0.5,2.1c-0.3,0.7-0.8,1.2-1.4,1.5s-1.2,0.5-2,0.5c-1.2,0-2.3-0.5-3-1.4s-1.2-2.4-1.2-4.5c0-2.4,0.4-4.1,1.3-5.1
			c0.8-0.9,1.8-1.4,3.1-1.4c1,0,1.7,0.3,2.4,0.8C176.2,512.7,176.5,513.4,176.7,514.4z M170.6,519.6c0,0.5,0.1,1,0.3,1.5
			c0.2,0.5,0.5,0.8,0.9,1.1s0.8,0.4,1.2,0.4c0.6,0,1.2-0.3,1.6-0.8c0.5-0.5,0.7-1.2,0.7-2.1c0-0.8-0.2-1.5-0.7-2s-1-0.7-1.7-0.7
			c-0.7,0-1.2,0.2-1.7,0.7S170.6,518.8,170.6,519.6z"/>
	</g>
	<g class="st24">
		<path d="M117.3,103v-1.4h7.9v1.2c-0.8,0.8-1.5,1.9-2.3,3.3c-0.8,1.4-1.3,2.8-1.8,4.2c-0.3,1-0.5,2.1-0.6,3.3H119
			c0-1,0.2-2.1,0.6-3.5s0.9-2.7,1.5-3.9c0.7-1.3,1.4-2.3,2.1-3.2H117.3z"/>
	</g>
</g>
</svg>
